<svg id="Layer_1" data-name="Layer 1" xmlns="http://www.w3.org/2000/svg" xmlns:xlink="http://www.w3.org/1999/xlink" width="833" height="520" viewBox="0 0 833 520"><defs><mask id="mask" x="-587.2" y="-446.54" width="1973.38" height="1230.68" maskUnits="userSpaceOnUse"><g id="ht1ii5hg2b"><path d="M.74.5h832v519H.74Z" fill="#fff" fill-rule="evenodd"/></g></mask></defs><title>live-demo-background</title><path d="M.74.5h832v519H.74Z" fill="#f2f2f7" fill-rule="evenodd"/><g mask="url(#mask)"><path d="M630.22,134.09q19-7,38.28-13.27c18.13-5.89,37.48-11.39,56.69-8.77,16.56,2.27,34,10.36,49,4.1C787,110.8,791,95.9,804.38,91.78c11.65-3.57,17.73,3.5,28.23,5.54,35.22,6.81,35.21-34.35,30.69-52.91-3.74-15.33-9.42-31.62-24.22-41.22-39-25.28-99.44,5.45-145-15.49-41.57-19.1-86.15-28.62-134.75-18.85-52.48,10.55-93.49,62.4-74.91,106,7.44,17.47,20.74,32.71,31.38,49,6.89,10.55,14.09,22.4,13.29,34.48-.51,7.55-9.76,19.38,4.26,23.75,8.21,2.56,16.2-4.05,20.89-10.23,15-19.72,51.36-28.73,76-37.81Z" fill="none" stroke="#0d102b" stroke-linecap="round" stroke-linejoin="round" stroke-width="2"/><path d="M322.7-16.11A122.53,122.53,0,0,1,343.47-9.2c20.65,9.34,41.62,19.64,56.78,34.93,16.57,16.7,18.56,40.05,9.63,60.36-12.78,29-59.31,43.58-42.05,78.49,6.68,13.51,20.36,23.94,35.61,31.16,26.27,12.45,56.3,17.87,82.88,29.77,20,9,40.59,16.77,62.66,21.6s46,8.46,64,21.1c19.21,13.48,27.74,34.44,36.92,53.92,10.56,22.43,24.08,46.18,49.24,60.25C727,398,767.68,394.65,794.72,379c13.07-7.58,23.92-18.68,26.73-31.73,1.63-7.63.47-15.45.43-23.2s1.27-15.93,7-22c10.82-11.55,33.48-11.4,49.25-10.13,23.24,1.87,44,7.89,64.79,16.68,23,9.72,46,20.95,71.66,22.94,30.19,2.35,60.48-8.93,82.08-26.65s35.22-41.29,43.32-65.62c8.33-25,3.29-51.67,14.32-76.05,7.62-16.85,24.26-32,45.63-34.76,18.93-2.41,34.38,5.23,50.93,11.33,13,4.78,27.23,12.27,41.83,12.42,31.42.33,56.43-22.54,69.47-46.35,20.78-38,22.51-80.39,15.82-121.15-3-18.42-6.3-36.85-11.4-55-12.11-43-42.58-105-108-98.6-25.1,2.47-48.41,12.09-69.65,23.5-22.67,12.17-44.35,27.31-55.4,47.8-16.59,30.76,13.48,48,8.61,74.41-4.79,26-43.35,40.93-71.52,40.82C1000.13,17.35,930.36-33.6,891-78.26c-13.68-15.52-29.08-37.93-54-40-27.82-2.32-57.68,5-81.06,17.3-17.64,9.31-50.21,32.64-72.2,23-9.17-4-12.95-13.22-14.86-21.7-7.5-33.21-1.93-66.66-1.24-100.28.41-20.11,4.91-45-5.6-63.74-4.41-7.88-13.89-14.47-24.3-13.82-6.32.39-12,3.29-17.31,6.11C593-257,565.52-242.45,537.72-228.71,513-216.48,485.1-208.2,456-208.2c-21,0-44.7-3.8-62.95-12.79-14.57-7.18-21.36-22.27-37.54-27.69-26-8.69-62.17,7.57-83.13,19.21-25.4,14.09-48.62,32.52-63.88,54.71-23.31,33.87-20,75.66,4.65,108.27,13.5,17.87,35.62,29.69,58.44,38,15.94,5.78,34.26,8.18,51.15,12.42Z" fill="none" stroke="#0d102b" stroke-linecap="round" stroke-linejoin="round" stroke-width="2"/><path d="M894,93.07a62,62,0,0,1-20.11,21.08C860.42,123,843.18,127.8,826,127.44c-9.84-.21-19.75-2-29.36.67-6.93,1.9-13.74,5.2-20.32,7.86C754.93,144.61,737,142.13,714,141A149,149,0,0,0,633.8,160.2c-19.64,11.31-41,31.3-29.19,53.11,2.39,4.41,6.94,7.82,12,10.22,15.95,7.57,35.64,5.62,53.89,4,47.64-4.33,95.77,15.52,139.69,28.27,6.93,2,18.32,5.22,25.76,2.89,8.31-2.61,11.58-12.24,16.65-17.65,11.34-12.08,31.81-16,50-13.71,13.86,1.76,29.35,6.24,40.55,13.42,8.81,5.64,13,12.07,25.09,12.57,27.52,1.15,48.73-21.56,54.41-41.86,3.29-11.79,3.29-24.22,8.12-35.63,6-14.11,29.58-33.66,43.4-13.57,5,7.3,5.13,16.14,6.87,24.43s6.33,17.27,15.81,20.13c10.28,3.1,21.85-2.72,27.44-10.55s6.85-17.2,8.88-26.15c4-17.82,11.86-35.53,26.41-49,21.69-20.09,44.59-17.48,73.36-19.7,30.26-2.32,46.13-30.53,55-54.77,10.17-27.73,19.06-57.69,8.52-85.33s-48.16-50-80.19-38.7c-31.63,11.13-39.09,44.81-57.22,69.13-19.64,26.35-52.13,37.46-87.65,41.63-21,2.46-43.6-.76-64.15-4.06Q974.34,24,941.17,20c-7.2-.87-14.73-1.67-21.57.38-10.94,3.27-12.93,13.47-13.62,22-1.43,17.52-3.19,35.46-12,50.74ZM211.05,706.52a236.42,236.42,0,0,0-40.9,33.81c-8.4,8.74-19.38,19.1-32.49,16.57-10.6-2-16.06-11.57-20-20L83.47,664.79c-9.41-19.89-27.09-43.66-25.16-65.45,2.28-25.87,28.71-46.81,58.2-55.29,23-6.62,48.79-7.44,69.38-18.27a64.69,64.69,0,0,0,30-32.93,65.62,65.62,0,0,0,4.06-35.35c-4.41-26.65-23.54-41.94-39.54-63.54C165,373.2,148.82,351.54,135,329.85c-3.74-5.88-7.31-12.22-6.84-18.86a15.13,15.13,0,0,1,14.43-13.63c8.17-.16,14.1,6.08,19.26,11.34,18.12,18.51,43.44,32.07,71.21,38.14,15.5,3.38,31.71,4.51,46.78,9,15.47,4.63,26.25,12.82,33.91,24.74,7.85,12.21,5.11,24.88,6.27,38.37,1.61,18.58,12.64,36.43,29.7,48.52S389.62,485.8,412,484.69c13.85-.69,27.29-4,41-5.56s28.61-1,40.21,5.32c31.62,17.24,3.36,73.51-11.83,94-16.21,21.85-43.82,45.2-74.05,53.17-32.63,8.61-65,19.65-97.21,30.17-36.54,12-69.85,25.5-99.1,44.74Z" fill="none" stroke="#0d102b" stroke-linecap="round" stroke-linejoin="round" stroke-width="2"/><path d="M1111.34,278.84c18.61-25.64,24.4-57,30.14-86.12,3.93-19.9,9.28-40.75,23.32-57.6,13-15.65,35.45-18.67,57.23-17.13,23.48,1.66,44.21,9.89,68.14,6.07,14.12-2.26,27.54-7.86,37.67-16.42s16.79-19.32,21.44-30.79a144.22,144.22,0,0,0,6.64-21.58c7.43-32,8.26-65.25-.32-97-13-48-54.24-112.48-124.78-99.34-34.16,6.36-61.77,31.08-68.92,59.63-5.79,23.1,1.2,51.4-16.71,71.38-15.23,17-40.42,26.54-65.16,29.35-48.58,5.52-97.81-6.39-136.23-31.82-31.11-20.59-52.3-48.62-77.68-73.6-36.65-36.06-91.28-18.37-128.38,8-10.76,7.64-21.25,16-34.26,20.58-61.34,21.77-48.75-56.23-44.91-83.13,4.39-30.76,1.11-66.59-12.27-95.6-4.13-9-11.73-18.7-23.24-18.9-6.33-.1-12.09,2.82-17.44,5.64-16.41,8.67-33.37,20.44-51.18,26.87-12.53,4.53-27.93,7.51-41.17,10.6a231.84,231.84,0,0,1-108.55-1c-16.6-4.24-32.61-10.37-49.74-12.7-63.63-8.68-99.08,45.36-110.29,89-5.76,22.44-2.5,45,11.52,64.85,14.29,20.22,41.86,33,66.08,43.86C347.24-16.93,373.24-6.5,393.82,9.73c31.92,25.18,48.91,70.6,17.47,100.41-11.78,11.17-29.66,23.06-32.05,38.79-2.59,17,19.89,28.65,34.89,36.34,31.11,16,64.48,32,97.43,45,28.7,11.31,63.25,6.61,90.81,20.62,15.49,7.87,26.34,21.12,34.68,34.23,12,18.85,17.1,39.84,29.24,58.75C676,359,690.05,372.78,708.55,380.4c29.83,12.29,77.56,2.63,92.82-23.67,5-8.71,6.71-18.47,8.88-28s5-19.23,12-27c9.37-10.35,24.87-15.07,40-15.36,6.81-.14,13.32-.2,19.68,0,14.17.39,27.58,2,42,6.66,21.82,7.12,40.87,19.34,63.53,24.85,21.94,5.33,45.76,3.43,66.79-3.69,15.91-5.39,36-12.24,47-23.5a106.6,106.6,0,0,0,10-11.88Z" fill="none" stroke="#0d102b" stroke-linecap="round" stroke-linejoin="round" stroke-width="0.71"/><path d="M1296.4,95.15A91.07,91.07,0,0,0,1322.46,73c18.6-23.53,22.71-54,21.72-81.53-.92-25.43-7.61-58.85-26.26-79.58-23.37-26-73.72-40.81-109.28-23.39-15.29,7.5-28.93,26-33.52,40.1-7,21.54-10.11,42-25.37,61.15a95.45,95.45,0,0,1-66,35.37c-30.3,2.5-65.51,1.13-94-8.19-36-11.77-65.19-27.54-90-52.77-15.9-16.16-36-37-58.17-47.61-22.84-10.9-59.13-1.86-81.06,6.48a142.3,142.3,0,0,0-36.63,20.3c-9.45,7.35-18.83,15-32.21,16.94-16.16,2.38-31-5.66-39.24-16.82-13.32-18.07-7.14-43.33-5.07-63.19,3.15-30.26,7-61.06-7-90-4.34-9-11.14-18.34-22.38-20.72-8.14-1.73-16.63.69-24.53,3.08-24.3,7.36-48.26,16.5-73.59,20.45a933.37,933.37,0,0,1-100.62,10.1c-21.58,1-43.42,1.25-64.39,5.62-14,2.92-26.27,7.65-36.56,14-17.47,10.85-29.28,26.49-34.46,46.21-7.65,29,.1,58.89,25.38,80.52,26.7,22.84,64.63,34,90.89,58.32,27.8,25.72,51.26,74.23,22.77,105.32-10,10.93-27.36,19.87-31.3,34-4.75,17,19.9,28.08,35.31,34,21.78,8.44,35.86,23.1,57,32.44,14.3,6.3,28.88,14.27,44.45,17.78,17.38,3.91,35.61,6.08,53.51,7.42,13.06,1,27.08,1.64,37.46,8.32,7.5,4.84,11.22,12.55,15.54,19.35C642,278,647.52,290.12,653.7,301.87c5,9.57,7.42,20.1,13,29.71A119.71,119.71,0,0,0,700.21,368c18.75,13.52,51.44,18.24,70.7,2.29,21.26-17.62,24.58-41,33.13-63.55,8.05-21.21,41.28-25.16,63.79-26.47,28.2-1.63,58.8-6.66,82.82,9,9.65,6.28,18.36,13.95,29.7,17.81,11.55,3.93,24.5,3.44,36.94,2.63,18.7-1.23,37.86-3.18,54.41-10.52,24.48-10.86,39.94-32.12,49.12-53.91a271,271,0,0,0,13.24-39.66c4.63-18.92,6.89-39.33,15.82-57.33,6.09-12.28,16.42-23.63,30.88-29.25,19.3-7.51,41.26-3.89,61.76-5.07C1261.59,112.8,1280.81,104.19,1296.4,95.15Z" fill="none" stroke="#0d102b" stroke-linecap="round" stroke-linejoin="round" stroke-width="0.71"/><path d="M838.66,113.84c13-.31,23.35-9.45,29.92-18.86C888.94,65.82,893.11,8.55,855-13.19c-15.47-8.82-35.82-8-54.52-6.79-32,2-63.84,7.33-94.72-.36-31.38-7.81-58.39-20.43-88.25-31.33-42.57-15.54-91.1-11.62-115.26,22.93C481.08,1.47,460.43,38.63,477,73.9c6.46,13.72,17.49,25.55,26.68,38.14s16.79,26.9,15.19,41.57c-.66,6.07-2.89,12-3.55,18s.54,12.72,5.67,17.09c6.5,5.53,17.57,5.65,26,2.33s14.69-9.38,20.59-15.35c20.92-21.19,57-31,87-41.26,20-6.81,34.86-13,57.56-11.9,15.18.73,30.77,3.86,46,3.12a58.52,58.52,0,0,0,29.65-10.17c10.92-7.44,17.8-9.87,31.94-5.58,6,1.81,12,3.93,18.31,3.9Z" fill="none" stroke="#0d102b" stroke-linecap="round" stroke-linejoin="round" stroke-width="0.71"/><path d="M612.67-23.7C572.73-29.59,529-17.2,502.82,8.71,477.86,33.4,484.53,65,504,90.22c9.55,12.38,18.38,30.76,31.36,40.4s32.44,10.39,48.48,6c18-4.93,33.23-15,49.81-22.67C665,99.43,702,93.59,737.64,97.24,751,98.6,764,110.3,777,104.39c11.16-5,14-17.7,26-22.1,12.67-4.65,28,3.41,41-.48,9.6-2.86,15.11-11.67,15.66-20.13S856.8,45,853.43,37c-6.54-15.5-16.86-29-37.27-33.18-13.94-2.83-28.58-1.34-42.75.56s-28.5,4.21-42.77,2.92C709.47,5.39,691-4,672.1-11.42c-19.9-7.83-38.39-9.18-59.43-12.28Z" fill="none" stroke="#0d102b" stroke-linecap="round" stroke-linejoin="round" stroke-width="0.71" stroke-dasharray="8 3"/><path d="M1015.85,74.12c-10.81-2.26-21.76-2.7-32.51,0-22.56,5.77-36.73,23.74-51.39,39.18-14.25,15-28.58,22.61-50.15,27.55-18.65,4.27-26.19,16.1-41.46,26.31-13.17,8.82-29.78,13.64-44.17,20.85-4.23,2.12-9,4.87-9.28,9-.47,6,8.17,9.14,15.2,10.29,52.2,8.55,107.79,1.9,155-18.55,25.1-10.87,53.27-23.89,66.14-45.4,6.14-10.27,14.55-21.7,28.19-23.07,7.28-.74,15.47,1.53,21.52-1.92s6.38-11.47,2.5-16.78S1064.83,93,1058.35,90c-13.32-6.31-27.77-12.75-42.5-15.83Z" fill="none" stroke="#0d102b" stroke-linecap="round" stroke-linejoin="round" stroke-width="0.71" stroke-dasharray="8 3 4 3"/><path d="M1035.48,150.36c5.23-4.45,11.7-8.49,18.14-9.13,10.72-1.06,19.84,6,31.66,3.44,9.63-2.1,15.22-10.41,18.21-18.3,4.71-12.41,6.28-26.5,17.16-35.84,11.46-9.84,29.68-11.24,46.14-10.79,19.58.53,50.71,3.36,68.46-4.45s26.15-26.81,31.86-41.7c9.47-24.73,23.42-64.69-3.81-85.86-29.65-23.06-54,.17-68.78,21.47-32.78,47.35-92.7,82.34-159.34,79.7-11-.43-22.08-1.54-33.09-1.26-21.7.55-49.35,9.66-64.11,22.73-11.15,9.87-19.42,21.72-29.79,32.17-19.94,20.09-45.64,34.67-74.92,42.67-34.49,9.42-61,27.57-99.44,26.9-11.69-.21-23.53-2-35-.06s-22.86,9.14-23.32,18.87c-.44,9.27,9.46,17.09,20.23,19.5C709.46,213.49,724,212,738,212.64c15.54.76,28.69,5.71,42.54,11.29,11.63,4.68,24.45,9.34,37.64,9,14-.33,25.18-7.15,38.54-9.74a190.35,190.35,0,0,1,66.44-1.06c20.31,3.32,42.46,9.75,60.61,1.5,17.06-7.75,19.15-22.12,25.29-35.74a130,130,0,0,1,19.49-30.68,70.16,70.16,0,0,1,7-6.88ZM769.31,70.54c16.12-1.82,34.61-8.47,37.06-21.9,2.8-15.38-18.38-26.92-37-27.07s-36.49,6.47-55.09,7c-33.34.88-57.13-22-84.57-34.44C608.92-15.36,584-18.29,560.87-14c-25.71,4.78-69.73,25.35-59.38,53,3.55,9.5,12.23,17,20.57,24.07,16.9,14.4,25.07,34.14,50.73,39.56,20.14,4.25,39.24-2.9,56-11.58,19.62-10.15,40.39-17.2,63.53-19.13,11.79-1,20,1.9,31.15,3.21,14.44,1.69,31.88-1.69,45.85-4.61Z" fill="none" stroke="#0d102b" stroke-linecap="round" stroke-linejoin="round" stroke-width="0.71"/><path d="M521.29,39.19c5.54,3.67,11.89,7.07,15.71,9.64,13.55,9.15,27.47,17.94,41.2,26.89,5,3.24,10.35,6.61,16.64,6.9,14.73.69,42-11.61,52-20.05,7.46-6.3,12.43-15.35,10.25-24-3.09-12.29-25.76-34.21-38-41.36-20.49-11.95-51.81-7.17-73.47-.5C531.1,1.17,503.19,14,511,29.67c1.55,3.15,5.66,6.43,10.33,9.52ZM755.73,61.13c40.79-2,16.77-39.17-9.34-27.4-7.34,3.3-14.23,12.59-11.84,19.87C737.41,62.33,745.59,61.62,755.73,61.13Zm466.66,47.5a122.74,122.74,0,0,0,18-1.21c32.26-5.09,50.5-31.68,62.89-54.68s15.65-49.4,10.92-74.2c-3.21-16.8-9.82-33.56-22.74-46.75s-32.88-22.31-53.28-21.1c-22.13,1.31-46.06,12.78-54.59,30.14-4.74,9.66-10.83,18.82-15.78,28.23-4.48,8.53-7.28,16.63-14.07,24.31-12.56,14.22-30.85,24.2-50.37,30.68-15.37,5.11-31.83,5-47.93,6.08-35.29,2.29-65.73-8.27-97.69-18.6-12.33-4-40.22-18.19-53.28-11.2-6.1,3.26-9.32,9.32-10.3,15.29s-.07,12,.3,18.06a104.15,104.15,0,0,1-16.35,61.89c-10.71,17-33.79,28.59-57.18,26.18-7.41-.77-14.78-2.82-22.18-2-9.77,1.13-17.61,7-26.49,10.63-18,7.26-39.13,4.62-59.09,3.55-24-1.29-42.71,5.32-64.42,12.44-20.64,6.77-44.72,19.76-55.14,36.55-8.66,14-6.73,33,7.63,43.15,10.09,7.15,24.13,9,37.39,9.13,26.2.35,52.49,2.31,78.12,7,14.27,2.59,30,3.51,43.74,7.61,12.22,3.64,25.44,8,36.71,13.36,9.31,4.45,17.09,10.14,28.83,9.37,16.78-1.09,21.36-9.4,30.05-18.89,8.5-9.27,28.16-16.35,42.08-15.59C921,239.29,937,252.3,956.36,260.11c24.66,9.94,52.73-9,63.41-26.45,9.23-15.06,12.43-32.11,18.88-48.14,3.27-8.15,10.58-17.6,20.72-16,9.36,1.51,12.48,11.06,14.76,18.75,2.58,8.72,6.72,17.49,14.61,23.61.8.61,1.6,1.21,2.43,1.78,27.92,19.25,39.11-17.09,43.73-33.82,7.66-27.71,17.62-62.63,56.47-69.7,10.13-1.84,20.61-1.44,31-1.53Z" fill="none" stroke="#0d102b" stroke-linecap="round" stroke-linejoin="round" stroke-width="0.71"/><path d="M574.17,54.74c3,1.33,6.14,2.68,9.54,2.78,7.76.21,13.34-5.91,17.49-11.37,3.59-4.73,7.24-9.54,9-14.94s1.38-11.56-2.6-16.07c-4.35-4.93-12-7-19.28-7.91C571.49,5,528.35,5.12,529,26.86,529.44,42.94,560.63,48.77,574.17,54.74ZM776.63,284.85a12.76,12.76,0,0,0-5.45-10.9c-5.84-4.37-14.25-5.4-22.09-5.26s-15.73,1.23-23.5.31c-11-1.3-20.74-6.5-30.83-10.46-17.17-6.74-45.73-6.5-34.63,15.94,2.77,5.6,7.44,10.37,11,15.64,7.4,10.91,9.89,23.57,14.19,35.58s11.29,24.28,24.27,30.6c17.14,8.34,42,2.1,50.85-12.74,5.14-8.66,5-19.25,6.54-29,1.26-8.12,9.59-19.91,9.63-29.73Z" fill="none" stroke="#0d102b" stroke-linecap="round" stroke-linejoin="round" stroke-width="2"/><path d="M730.18,280.38c-9-2.62-32.77-8.07-39.85-.8-10.8,11.1,14.12,29.28,16.34,40.72,1,5.18.45,11.18,4.9,14.87,3.78,3.13,10,3.25,14.92,1.5C753.3,327,761.87,289.56,730.18,280.38Z" fill="none" stroke="#0d102b" stroke-linecap="round" stroke-linejoin="round" stroke-width="0.71" stroke-dasharray="8 3"/><path d="M718.11,308.19c6.25,2.11,12.7,2.36,17-.79,6.08-4.47,4.39-13.42-1.82-17.76-4.69-3.28-28-7.73-32.43-2.8C695,293.44,706.18,304.18,718.11,308.19Z" fill="none" stroke="#0d102b" stroke-linecap="round" stroke-linejoin="round" stroke-width="0.71"/><path d="M671.7,324c14.88,27.86,39,56.16,74.57,48.23,17.28-3.86,25.31-21.34,32-33.37,8.78-15.9,16.21-32.27,23.63-48.63a16.55,16.55,0,0,0,1.84-5.81c1.27-23-49.92-27.54-67.56-28.1-24.67-.78-47.75-19.18-73.27-11.22-26.59,8.29-10.62,31.65-5,47.17A241.38,241.38,0,0,0,671.7,324Z" fill="none" stroke="#0d102b" stroke-linecap="round" stroke-linejoin="round" stroke-width="0.71"/><path d="M646.45,362c-16.67-21.77-19.91-48.06-39.8-69-21.6-22.74-56.79-34.86-91.45-30.84-6.68.77-13.72,2.74-19.92.52-6.53-2.34-9.6-8.42-13.37-13.45-8.17-10.91-28.87-12.6-42.28-16.45C422.7,227.94,406.08,222.11,391,214c-7.72-4.14-15.54-9-24.71-9.53-14.48-.8-26,9.24-37.21,16.87-15.82,10.72-35.14,17.82-55.31,20.35-20.6,2.58-43.21.82-60.56,10.41-32,17.71-20.23,55,11.24,66.64,28.2,10.41,60.32,12.86,87.25,25.76C333,354.7,359.56,380.61,359.92,402c.23,13.48-8.44,27.24-3,39.94,3.69,8.69,13.49,14.81,24,17.75,15.89,4.45,37.09,6.63,53.05,2.31,18.06-4.89,35.1-14.45,54.81-13.46,31.8,1.6,37.8,29.19,58.75,42.69,14.07,9.07,34.16,8.3,51,3.58s32.1-12.85,48.93-17.63c23.94-6.8,49.85-6.53,74.72-10.38s50.89-13.5,61.65-32.56c3.12-5.53,4.15-13.22-1.8-16.81-4.25-2.57-10.06-1.79-15.27-1.26-46,4.7-96.27-22.8-120.28-54.14Z" fill="none" stroke="#0d102b" stroke-linecap="round" stroke-linejoin="round" stroke-width="2"/><path d="M653,616a126.75,126.75,0,0,0-18.34-.75c-18.65.49-37.37-.58-54.94-6.22-21.94-7-41.3-21.77-47-40.76-5.85-19.67,6.6-45.86,32.71-48.71,9.39-1,19-1,28.15-2.92,16.23-3.45,29.57-12.8,44.45-19.2,20.64-8.87,44.07-12,67.06-14.75s46.43-5.44,67.51-13.57c16.91-6.51,31-16.68,40.07-30.28,9.63-14.48,7.33-27,12-42.61C831.54,373,854.48,356.93,878,345c27.2-13.82,53.51-23.93,85.45-13.71,14.06,4.49,26.93,11.26,40.93,15.88,19.48,6.43,40.08,6.14,59-1.51,15.5-6.27,34-29,51.57-27.66,12.51,1,22.17,11.51,18.8,21.73s-14.88,18-25.13,23.23c-10.51,5.35-22,9.75-30.46,17.24-21.14,18.81-7.12,63.49,1.38,84.5,8.24,20.36,17.4,41.3,37.71,55.39,12.93,9,27.64,16.35,38.51,27,15.45,15.2,12.35,40.27-8.88,51.14-22.26,11.38-63,6.13-86.16,0-29.41-7.78-54.39-22.93-86.54-23.41-22-.34-48.83,7.58-63.68,21.42-16.7,15.57-23.15,40.73-33.86,59.25-6.49,11.21-23.11,41.53-43.66,30.55-6.4-3.42-10.76-8.85-15.75-13.63-22.49-21.51-61.49-29.82-93.63-20-9.69,3-21.11,7.29-29.5,2.28-10.71-6.41-5.39-20.36-14.19-28.63-6.41-6-16.61-8.91-26.9-10.15ZM-9.62,157.16a257.39,257.39,0,0,0,29.34,17.72c20.19,10.43,41.8,21.5,63.07,30,36.82,14.69,74.17,23.39,114.5,28,32.82,3.74,70.75,3.53,99.58-12.77,33.45-18.92,35.76-58.46,37.65-89,2-32.11-2.33-67.72-29-92.82C289.82,23.58,265.3,15,246.67,3.2c-36.9-23.46-56.83-54.08-75.12-88.57-15-28.35-40.74-40.78-74.61-51.3-7.55-2.34-15.49-4.72-23.46-3.73-10.61,1.31-18.71,8.2-27.51,13.29-22.54,13-53.91,14.63-78.19,4-12-5.29-23.69-13.57-37.22-12.38-15.35,1.35-25.16,14.41-29.26,26.78s-5.17,25.86-13.84,36.47c-9.21,11.27-26.08,18-31.77,30.79-5,11.21.19,23.62,5.71,34.65a594.55,594.55,0,0,0,33.14,57.89c25.68,39.56,54.79,77.43,95.84,106.1Z" fill="none" stroke="#0d102b" stroke-linecap="round" stroke-linejoin="round" stroke-width="2"/><path d="M151.52,376.39c14.41,18.05,29.16,37.77,40.34,57.07,12.66,21.84,17.3,49.83-.45,69.07-11.74,12.72-38.83,25.13-58.31,25.16-38,.06-51.27-28.08-76.81-45.69-14.79-10.19-34.2-19.77-53.74-16-8.28,1.57-16.25,4.29-23.45.09-6.88-4-11.48-14.58-14.41-20.81-7.35-15.61-9.85-32.5-13.35-48.91-8.9-41.84-27.24-81.62-43.71-121.66-7.53-18.32-17.78-38-19.24-57.46-1.24-16.59-9.1-30.35-12.61-46.58-3.06-14.17-1.64-29.54,7.51-41.75,10.8-14.42,25.52-24.41,19.81-42.63-5.47-17.46-16.49-33.55-29.49-47.85-16.34-18-36.12-33.51-55.37-49.35C-192-19.42-202.48-28.34-207.63-39.6s-3.62-25.53,7.42-33.31c12.33-8.68,30.89-6.42,46-11.21,13.44-4.26,23.51-14.12,29.31-25.09s7.82-23,9.1-35c.76-7.09,1.83-15.09,8.62-19.4C-101.8-167-94.12-167-87.74-165s11.83,5.53,17.33,8.86c19.91,12,42.76,21.64,67.27,23.4s50.82-5.37,65.82-21.62c5.59-6.05,11.6-14.09,20.72-13.33,10,.83,13.44,11.16,19.17,18,8.69,10.42,24.93,13.78,39.13,18.35,27.41,8.83,31.73,29.12,42.22,49.57A256.4,256.4,0,0,0,229.65-19c17.07,17.31,44.18,23.1,65.87,35.78,28.54,16.69,38.65,36.48,44.58,64.49,5.53,26.1,4.28,53.31,1.23,79.59-2.42,20.87-4,41.39-24.8,55.91-15.71,11-36.15,16.06-56.38,18.76-12.5,1.67-25.14,2.53-37.72,3.72-7.77.74-15.52,1.6-23.2,2.86A53.54,53.54,0,0,0,174,253.85c-9.75,8-7,26.14-22.65,28.72-5.46.9-11.2.13-16.61,1.24-10.62,2.18-17.51,11.31-18.84,20.35-3.63,24.68,15.42,47.2,31,66.49q2.29,2.85,4.61,5.74Zm974.55,192.52a32.64,32.64,0,0,0-.25-21.85c-6.19-16.53-24.52-27.42-38.1-40.54-9.24-8.91-14.32-19.88-23.07-28.93-5.62-5.81-12.65-10-17.45-16.48-13.54-18.19-17-42.26-10.93-62.85,2.7-9.12,6.35-20.58-2.49-26.42-5.74-3.78-13.89-2.91-21.21-3-24.15-.25-45.6-12.69-69.28-16.65-29.72-5-62.32,4.83-81.34,24.44-25.33,26.13-27.12,61.86-58.45,85.56-18.68,14.14-43.18,21.74-67.65,27s-49.61,8.47-73.44,15.45c-28.62,8.39-51.1,25.37-81.6,31.77-6.2,1.3-12.84,2.5-17.39,6.22-4.34,3.55-6,8.82-6.29,13.87-2,33,35.86,41.16,67.81,41.66,30.68.48,62.15-1.69,77.29,25.4,3.63,6.5,5.9,14.1,12.85,18.34,9.38,5.72,22.36,2.67,33.9,1.43a95.16,95.16,0,0,1,51.69,8.92c9.7,4.83,19.45,11.64,30.69,10.57,14.54-1.38,22-14.61,28.74-25.41a141,141,0,0,1,33.78-37c12.32-9.53,26.74-22.29,43-26.62,29.28-7.81,62.25-6.24,90,4.92,16.76,6.74,32.4,16.91,51,18.15,15,1,30.48-4.55,39.9-14.33a36.4,36.4,0,0,0,8.32-13.64Z" fill="none" stroke="#0d102b" stroke-linecap="round" stroke-linejoin="round" stroke-width="0.71"/><path d="M178.68,270.2a29.71,29.71,0,0,0-1.48,21.6c4.09,14.21,17.24,25.86,32.89,32.45,18.41,7.76,39.8,8,59.25,13.39,22.38,6.17,42.06,12.23,57.63,27.94,10,10.06,17.28,22.71,19.79,35.64,2,10.31-3.17,17.89-3.75,27.74-1.56,26.47,33.32,43.48,60.89,44.92,18.69,1,37.29-3,54.81-8.48,9.56-3,19.51-6.54,29.61-5.26,24,3.06,36.74,25.59,53.5,37.67,21.11,15.22,50.88,6.09,73.79-2.73s43.83-14.91,68.72-18.17c28.84-3.77,58.54-6.75,84.68-18.38,14.86-6.61,27.93-17.28,32.33-30.83,4.57-14.05-2-24.55-19.51-22.39-27.64,3.42-57.05.63-82.68-8.78C677.91,388.74,660,370.26,648,354.25c-11.85-15.77-15.07-33.85-25.75-50.22-12.22-18.75-27.55-30.54-51.11-39.7-11.88-4.62-24.17-7.3-37-9.16-10-1.45-25.64-1.28-34.28-5.53-7-3.43-11.78-9.28-19-12.66-8.19-3.84-17.69-6.27-26.45-9.07-22.52-7.2-45.77-13.85-65-25.94-7.39-4.64-15.32-11.59-25-11-9.35.53-19.42,7.87-25.48,13.19-7.17,6.29-13.21,13.5-21.18,19.08-13.21,9.25-30.58,13.25-47.65,15.34s-34.46,2.54-51.24,5.9c-18,3.59-33.88,12.65-40.14,25.76Z" fill="none" stroke="#0d102b" stroke-linecap="round" stroke-linejoin="round" stroke-width="0.71"/><path d="M1381.81-28.39c2.6,28.17,6.08,56.79,2.43,85-2.34,18-7.24,36.21-16.44,52.74a94.21,94.21,0,0,1-18,23.39c-6.06,5.63-13,14.83-20.82,18.5-6.94,3.27-18.54,2.09-26.5,2.91a74.21,74.21,0,0,1-28.75-2.68c-19.46-5.83-40.3-13.07-61.32-9-15,2.9-27.55,11.6-36.49,22-8.15,9.45-12.47,20-18.14,30.45-5.09,9.43-5.48,18.73-6.82,29.07l-.12.92a129.37,129.37,0,0,1-10,35.71c-4.74,10.62-14.52,18.4-16.48,29.94-.46,2.72-.62,5.6-2.33,7.95-3.08,4.24-9.48,5.16-14.3,7.45-5.09,2.43-9.62,5.79-14.19,8.82-11.69,7.79-24.17,15.1-38.41,19.27-21.87,6.41-46.25,4.58-68.3-1.37s-40.93-19.08-62.57-24.75c-19.44-5.1-41.82-5.81-62.08-5.83-9.58,0-20,.8-27,6.25-10,7.8-8.45,20.95-9.72,32.3-2,17.63-13.2,34.31-29.78,45.34-18,11.95-35.9,15.36-59.08,12.82-36.33-4-61-19.8-80.09-45.12-9.63-12.76-12.26-26.33-19-39.59-12.7-24.88-39.93-46.58-70.21-56-14.77-4.58-29.12-7.07-43.65-12.16-17.54-6.13-35.24-12-53-17.65-22-7-47.41-14.16-69.27-24.44a138.79,138.79,0,0,1-24.72-14.52c-14.36-10.86-25-27-24.31-43.49C353,129.57,372.26,116,383.9,104c20.71-21.45,28.15-44.27,12.69-69.7C374.37-2.29,328-6.94,285-15.69c-18.36-3.73-37.18-11.08-52.15-20.75-12.94-8.37-22.2-20.12-30.49-31.71-17.84-24.92-25.79-56-17.81-84.5,14.69-52.46,74.75-91.77,134.75-105.71,19.78-4.59,34.12-3,49.59,8.93,7.68,5.94,14.34,12.81,22.66,18.12,22.59,14.43,49,20.46,77.27,16.33,24-3.51,46.06-13,66.69-23.72,21.09-11,42.75-21.13,64.42-31.28,15.18-7.11,39.42-26.13,57.27-16.24,7.81,4.33,12.43,11.65,15.68,19,9.64,21.7,5,48.93,4.83,71.86-.18,25.52-5.15,51.91-3.8,77.28.89,16.74,14.41,29.25,35.31,27.47,12.68-1.1,23.28-8.08,34.09-13.69,22.06-11.44,50.76-25.67,77.35-26,20.65-.23,44,7.22,55.36,21.92,12.82,16.67,22.49,33.44,38.64,48.42C942.23-34.33,977.76-14.29,1017-3.18c31.64,9,78.27,7.59,98.53-18,19.35-24.5.18-53.08,14.35-79.26,7.45-13.75,21.52-24.12,35.62-33.58,16.84-11.3,34.55-21.92,53.86-30.12,17-7.19,41.5-16.17,61.08-13.41,73.18,10.32,96.6,95.85,101.11,146.07.1,1,.19,2.09.29,3.14Z" fill="none" stroke="#0d102b" stroke-linecap="round" stroke-linejoin="round" stroke-width="0.71"/><path d="M266.7,199.64c31.22-22,33.84-66.78,28.46-98.37-5.77-33.88-25.41-65.52-55.61-88.7C215.8-5.67,188.81-21.82,171.74-44.69c-12.29-16.45-22.14-36.42-38-50.7C112.43-114.56,88-109,69.61-90.62c-8.07,8.1-16.52,17.06-28.72,19.76C25.69-67.49,10.35-75-2.64-82.37S-30.25-97.8-45.76-95.63c-12.51,1.74-22.22,9.74-31,17.34-13.53,11.64-27.37,23.69-34.6,38.74C-121.6-18.32-113.2,8-106,29.23a218.65,218.65,0,0,0,39.2,69.33A251.1,251.1,0,0,0-25.5,137.75a287.24,287.24,0,0,0,59.2,34.44C62,184.45,92.65,197.93,124,203.6c45.24,8.18,102.93,24.13,142.69-4Z" fill="none" stroke="#0d102b" stroke-linecap="round" stroke-linejoin="round" stroke-width="0.71"/><path d="M-29.36,410.42c2.81,11.26,5,22.5,7.43,33.84,3.19,15,17.38,9.38,31.66,7.73,16.35-1.88,32.58,4.11,46.37,11.68s26.28,16.87,41.09,22.95,33.14,8.51,47.54,1.78c18.56-8.68,24.05-29.43,20.37-46.91-3.19-15.1-12-28.44-17.45-42.91-6.55-17.29-16.82-28.22-28.21-43.19-8.93-11.73-20-26.88-23.47-40.61-3-11.93-5.12-20.94-21.77-25.1-12.4-3.1-25.73-1.19-38.39,1.05s-25.66,4.8-38.41,2.93c-14.37-2.11-27.31-10.15-33.86-21a34,34,0,0,1,0-35.2c6-10.06,17.24-17.91,20.86-28.74,3.9-11.67-2.17-24.43-12.18-33.2-9.34-8.18-21.68-11.33-32-18.07-8-5.22-15-14.39-26.62-13.87-9.91.45-15.26,9.91-16.89,18.07-4.79,24,3.77,47.63,12.73,70.15,8.75,22,15.88,44.57,24.42,66.88q19.05,49.8,33.83,100.64Q-30.73,404.87-29.36,410.42Z" fill="none" stroke="#0d102b" stroke-linecap="round" stroke-linejoin="round" stroke-width="2"/><path d="M90.62,461.86a48.46,48.46,0,0,0,7,4.4c5.5,2.74,12.53,4.1,18.35,1.85,5.31-2.05,8.51-6.61,10.74-11.1,7.2-14.55,6.09-30.91,4-46.12-2.36-17-17.79-30.17-28.16-44.18Q86.66,345.2,70,324.1c-5.81-7.34-15-15.66-25-12.77-18.06,5.23-8.14,31-31.71,31.61-7.55.19-15.31-1.73-22.55.07-21.16,5.27-16.56,27.91-13.24,41.53,4.16,17,5.09,44.63,27.74,51.36,11,3.27,23.12,2.62,34.72,4a92.75,92.75,0,0,1,42.94,16.18c2.62,1.89,5.12,3.91,7.73,5.81ZM618.81,357.49c-6.16-10.72-8.94-20.55-11.66-31.92s-13.66-21.5-23.5-29.49c-17-13.8-48.92-25.73-68.55-8.63-3.72,3.24-6.49,7.18-10.21,10.43s-8.92,5.83-14.26,5.19c-7-.83-11.48-6.84-12.65-12.63s0-11.74-.76-17.57c-3.14-24.86-34.11-32-58.62-37.37-30.13-6.61-63-7.48-91.73,2.59-21.37,7.5-43.41,18.37-66.85,20.31-9.9.82-20.59,1.48-28.2,6.82a20.58,20.58,0,0,0-6.1,26.57c11,20.9,36.77,16.78,57.21,24.88,21,8.33,42.34,21.07,57.28,35.91,20.26,20.12,37,46.65,56.19,62.38,24,19.61,57.61,19.29,88.51,14.22,30.16-4.94,58.29-16,85.51,3.09,9.48,6.66,17,16,28.73,19.27,19.13,5.33,38.4-7.75,58.49-9.25,9.77-.73,19.49,1.33,29.24,2.22s20.4.41,28.14-4.61,10.45-15.84,3.2-21.35c-2.47-1.87-5.68-2.9-8.81-3.88-22-6.9-53.92-11.29-68.74-27.45a167.23,167.23,0,0,1-21.86-29.73Z" fill="none" stroke="#0d102b" stroke-linecap="round" stroke-linejoin="round" stroke-width="0.71"/><path d="M344.82,330.31c-10-10.41-22.28-20.88-37.89-24.8-13.67-3.43-32-6.55-37.95-19.19-6.28-13.33,13.08-19.79,24.6-23.69,12.75-4.34,24.71-9.77,37.3-14.37,26.1-9.53,56.53-6.91,83.54.66,12.26,3.44,24.38,8,33.77,15.4s15.71,18.12,14.25,28.83c-1.43,10.51-9.85,19.36-18.57,27.06s-18.31,15.18-23.13,25c-6,12.23-.14,27.48,12.32,35.43,14.47,9.24,34.76,5,48.83-2.53,16.58-8.91,29.13-22.91,34.68-38.69,3.5-10,4.32-20.56,9-30.18s14.93-18.52,27.39-18.32c15.63.26,25.57,13.85,31,26.08a173.3,173.3,0,0,1,12.68,42.9c1.93,12.26,2,25.95-7.43,35.48-8.2,8.28-21.83,11.42-34.71,11.89s-25.78-1.25-38.64-.57c-20.84,1.1-41,8.47-61.83,7.38-25.59-1.33-47.92-15.32-64.42-31.66S360.83,347,344.82,330.31Zm-12.74,87.06c-.22-13.19,2.42-26.7-3.68-38.73-18.62-36.75-81.46-32.55-117.69-45.31-16.37-5.77-33.5-18.69-45.75-29.4-9.22-8.06-18.72-21-34.23-11.55-8.78,5.34-11.68,15.53-9.82,24.46,5.22,25.07,27.48,43.9,44.25,64,8.32,10,14,20.73,22,30.93,9.83,12.45,18.75,25.61,23.4,40.11,6.61,20.57,3.13,44.76-15.24,59.55C170.06,531.78,131,528,101.22,540.66,66.5,555.39,50.91,585.29,53.31,617,55.12,641.09,67.44,662.61,75,685.3c8.3,25,22.75,49.12,33.25,73.54,3.67,8.56,8,17.81,17.48,22.34,11.59,5.54,26.88,1.62,36.83-5.81s16.06-17.67,23.06-27.16c17.9-24.28,43-44.83,72.44-59.3,38.93-19.13,82.23-30.47,124.12-44.07,18.72-6.09,38.41-12.17,56.47-19.21C457.46,618.28,475.35,600.4,488,587c16.65-17.62,28.15-39.65,29-62.28.7-18-2.13-41.91-24.78-49.93-18.78-6.65-35.6-1.19-54.13,2-19,3.26-39.08,2.84-57.29-3-24.06-7.66-44-25.53-47.86-46.77a59.16,59.16,0,0,1-.86-9.69Z" fill="none" stroke="#0d102b" stroke-linecap="round" stroke-linejoin="round" stroke-width="0.71"/><path d="M448.31-21.88C437-15,424.67-13,411.1-11.65c-7.15.72-20.7.41-13.5,8,2.56,2.71,9.07,3,12.49,5,4.48,2.69,7.19,6.58,9.66,10.6,5.05,8.23,6.82,18,14.63,24.91,12.54,11.16,22.78,4.72,26.19-9.06a185.64,185.64,0,0,1,15.27-40.44c2.51-4.86,20.06-25.9,17.5-28.81-7.55-8.56-39.18,16-45,19.57Z" fill="none" stroke="#0d102b" stroke-linecap="round" stroke-linejoin="round" stroke-width="2"/><path d="M445.07,73.64c3.5,16.23-1.76,33.34-14.43,46.11-5.68,5.72-12.44,10.65-17.77,16.59-11.48,12.82-11.27,28,8.07,32,18,3.67,28.86,12.54,41.45,22.7,19.12,15.43,44.24,27.73,70.3,33.8,10.07,2.35,32.54,7.83,42.16,2.41,8.44-4.74,2.24-21.6,2.07-29.46-.07-3.6-.55-7.83-4.23-9.71-3.52-1.81-8.26-.38-11.3,2s-5,5.47-7.93,7.94c-9.75,8.33-27.62,6.52-37.65-1.57-15.35-12.4-10.5-28.7-14.19-44.18-4.12-17.27-11.19-34-19.34-50.17-5.21-10.35-13.62-21-17-31.87C463.37,64,463.75,52.52,451.38,55c-10.17,2-7.69,12.55-6.31,18.68Z" fill="none" stroke="#0d102b" stroke-linecap="round" stroke-linejoin="round" stroke-width="0.71" stroke-dasharray="8 3 4 3"/><path d="M431.92,136.14a15.55,15.55,0,0,0-1.27,1.3c-2.28,2.65-3.2,6.41-1.18,9.21,2.5,3.46,8.19,4.07,13,3.64s9.81-1.51,14.32-.08c5.27,1.68,8.31,6.35,9.77,10.92s1.82,9.4,4,13.77,6.83,8.39,12.47,8.26a12.57,12.57,0,0,0,11-7.73c1.65-4.05,1.17-8.48.33-12.7-3.33-16.82-11.83-32.56-20.25-48.08-1.5-2.76-3.22-5.72-6.44-7.1-6.07-2.59-13.14,2-16.33,7.11-2.77,4.38-4.42,9.1-8.2,13-3.11,3.21-7.83,5.35-11.2,8.48Z" fill="none" stroke="#0d102b" stroke-linecap="round" stroke-linejoin="round" stroke-width="0.71"/><path d="M557.38,40.19c-28.35-9.92-11.64-28,12.55-27.09,7.33.29,15,3.35,17.88,8.94,3.16,6.09-.56,13.69-7.32,17.26S564.77,42.77,557.38,40.19Zm-204,16.66C356.45,68.36,355.14,81,352,94.43c-1.44,6.27-1.54,14.73,5.69,16.83,6,1.74,11.9-2.7,15.48-7.06C384,91.12,392.94,67.49,391.42,51.38c-1.56-16.71-23.91-33.53-39.62-41.93C339.29,2.76,324.63-1.08,311.2-6c-11.51-4.23-21.15,3.14-11.31,13,4.6,4.59,12,7.41,18.14,10.41,17.7,8.7,30.83,22.58,35.35,39.49Z" fill="none" stroke="#0d102b" stroke-linecap="round" stroke-linejoin="round" stroke-width="0.71" stroke-dasharray="8 3"/><path d="M-19.89-68.28C-30.11-71.29-43.25-71.4-52-70-64.37-68-74.2-60.44-82.8-52.81c-26.45,23.49-21.83,55.31-13,84.41C-84.59,69-60,103.35-25.74,129.32c26.82,20.32,57.33,34.41,91.92,43.15,33.57,8.49,65.92,11.37,100.67,12.05,30.31.59,61-10.47,80.38-29.92,33.18-33.22,23.26-76-.45-110.85C221.91,7.2,177-16.34,149.26-51.73c-9-11.49-19.41-22.74-37.59-23.48C99.69-75.7,87.57-71,80.34-63,74-56.1,71.55-47.32,69-38.88S63.37-21.69,56.24-15.3,36.67-5.75,27.88-10.51c-4.73-2.56-7.61-6.87-10.29-11-7.81-12-15.6-32.74-27.54-42a30.4,30.4,0,0,0-9.94-4.74Z" fill="none" stroke="#0d102b" stroke-linecap="round" stroke-linejoin="round" stroke-width="0.71"/><path d="M70.26,72l-4.44.78C43.5,76.77,32.44,88.6,47,106.11c6.49,7.82,16.71,13.09,27.5,16.25,23.67,7,53,13.45,78,9.19,13.74-2.34,27-7.59,36.54-16.16a48.56,48.56,0,0,0,15.67-40.87c-1.38-14.67-8.74-28.63-18.79-40.75-8.36-10.07-25-24.65-41.78-18.11-7.08,2.76-11.81,8.52-15,14.45s-5.24,12.28-8.87,18C109.3,65.46,90.61,68.45,70.26,72Z" fill="none" stroke="#0d102b" stroke-linecap="round" stroke-linejoin="round" stroke-width="0.71" stroke-dasharray="8 3 4 3"/><path d="M417.56,267c-20-4.48-40.53-8.13-61.3-8.89-15.67-.57-40.15-2.34-52.17,7.7-4.6,3.84-7.06,10-4,14.82,4.26,6.78,13.44,5.93,21,7.48a58.94,58.94,0,0,1,24.41,11c10.16,8,16.71,19.33,28.85,25.11,15.78,7.53,36.08,3.22,51.79-4.41,7.3-3.54,14.27-7.87,19-13.69s7-13.33,4.48-20c-4.13-10.88-18.74-16.15-32-19.11Z" fill="none" stroke="#0d102b" stroke-linecap="round" stroke-linejoin="round" stroke-width="2"/><path d="M555.09,27.08h20.32m-10.16-8.22V35.29" fill="none" stroke="#0d102b" stroke-linecap="round" stroke-linejoin="round" stroke-width="0.71"/><path d="M508.88,378.27c-6.35,3.15-14.69,6.94-13.69,13.05.59,3.62,4.69,6.28,9,7s8.71,0,13-.72q17-3,33.81-6.81c9.38-2.12,19.4-4.82,25.08-11.39,5.29-6.13,5.58-14.27,4.91-21.79-1.28-14.21-12.3-67.09-38.33-38.63-9,9.84-5.28,21.41-9.15,32.57s-12.76,20.82-24.59,26.68Z" fill="none" stroke="#0d102b" stroke-linecap="round" stroke-linejoin="round" stroke-width="0.71" stroke-dasharray="8 3"/><path d="M565.43,338.29c-2.59-4.78-7.41-8.17-14.26-7-13,2.15-3.47,14.3-1.48,21,.87,3,2.18,6.36,5.59,7.43,3.81,1.19,7.91-1.35,10-4.27,3.17-4.39,3.12-11.69.14-17.17Z" fill="none" stroke="#0d102b" stroke-linecap="round" stroke-linejoin="round" stroke-width="2"/><path d="M412.9,316c14.5-3.62,27.74-16.36,15.42-28.05-8.89-8.43-28.7-9.23-41.08-7.18-12.83,2.13-19.87,10.13-15.76,21.25C376.9,316.69,397.31,319.87,412.9,316Z" fill="none" stroke="#0d102b" stroke-linecap="round" stroke-linejoin="round" stroke-width="0.71" stroke-dasharray="8 3"/><path d="M394.49,298.66h20.32m-10.16-8.22v16.43m304.26-10.14h20.32m-10.16-8.22v16.43M141,86h20.32m-10.16-8.21V94.25M42.34,403H62.66M52.5,394.82v16.43M74.33,624.72c8.36,26.48,22.81,51.22,37.94,75.37,8.79,14,20.2,33.57,43.64,27.17,12.38-3.38,21.46-12,31-19.46,23.29-18.12,54.9-30.64,83.52-41.77,51.42-20,109.73-28.09,155.26-57.63,25.46-16.51,45.74-40.57,51.42-67.32,1.87-8.8,4.69-25.41-.61-33.58-6.78-10.44-27.49-10.22-39.23-8.56-23.08,3.25-44.58,7.78-67.35,12.86-14.18,3.17-29.84,4.73-43.06-.6-15-6.05-23.65-19.85-26.68-33.59-4.29-19.46,2.12-37.29.57-56.67-.93-11.69-5-23.44-13.62-32.68-9-9.75-22.48-16.1-36.5-19.82-11.87-3.15-25.29-2.51-36.8-5.74-8.6-2.42-13.33-9.34-22-12.13-5.08-1.63-11.66-1.11-14.85,2.59-3.92,4.55-.9,10.87,2.2,15.85,15.07,24.25,32.62,48.2,44,73.84,13.89,31.36,3.3,64.84-31.91,82.61-26.24,13.24-58.35,14.45-84.34,27-15.13,7.31-25.27,18.18-33.19,31-8.19,13.26-4.23,25.47.1,39.67l.5,1.61Z" fill="none" stroke="#0d102b" stroke-linecap="round" stroke-linejoin="round" stroke-width="0.71"/><path d="M1054,569c12.87-.2,36.31-4.85,38.45-17.25,1.57-9.13-4.45-20.16-9.12-28.17-8.55-14.67-32-29.06-49.66-35.18-17.09-5.92-36.16-5.84-54.61-7-18.6-1.21-37.46-4.82-52.75-14.18-15.61-9.55-27.27-22.36-48.27-23.58-37.33-2.15-70,34.68-71.49,63.31-.5,9.61.63,21.15-8.75,26.78-8.58,5.16-20.49,1.82-30.23-1.63C751,526.16,734,520.31,716,518.75c-23.35-2-89.24,15.61-65.86,45.09,5.53,7,16,9.66,25.17,13,16.53,6.08,31,15.87,41.61,28.06,6.84,7.89,12.78,17.28,23.59,21,13.24,4.55,28-1.27,42.34-1.93,19.61-.9,40.46,7.9,58.1.73,11.29-4.58,17.7-14.45,24.77-23.08,15.72-19.19,36-30.22,59-42.27,25.28-13.22,47.19-10.9,75-2.06,17.56,5.56,35.41,12,54.19,11.69Z" fill="none" stroke="#0d102b" stroke-linecap="round" stroke-linejoin="round" stroke-width="2"/><path d="M833.2,341.49a5.58,5.58,0,0,0-.42,2.56c.36,2.48,4,3.83,6.88,3.31s5.22-2.31,7.45-4c16.36-12.2,31.66-15.67,51.14-22.66,3-1.08,6.52-3,6-5.73s-4.68-3.73-8-4c-12.63-1.11-26.47-4.42-38.55.23-14,5.41-20.68,18.48-24.5,30.27Z" fill="none" stroke="#0d102b" stroke-linecap="round" stroke-linejoin="round" stroke-width="0.71" stroke-dasharray="8 3"/><path d="M95.39,287.75c9.52,9.81,10.08,25.14,16,37.34C118,338.83,126.26,352,135,364.89c17.54,26.06,37.23,51.29,50.81,79.05,4.92,10.05,9.05,20.9,6.94,31.61-4.24,21.58-28.83,42.78-55.55,43.91-19.13.8-32.71-9.22-45.32-19.42A446.46,446.46,0,0,0,46,467.55C34.23,460.25,23.41,457,9,460.4c-13.44,3.14-24.48,4.33-33.21-7.25-5-6.63-6.58-14.59-8.24-22.3-7.64-35.43-19.09-70.2-32.11-104.5-12.74-33.56-28.24-65.86-36-100.39l-13.58-60.5c-1.69-7.55-3.38-15.38-1.11-22.82s9.68-14.38,18.9-14.56c6.41-.12,12.23,2.91,17.5,5.95,34.48,19.81,98.26,53.35,74.28,95.71-6,10.58-17.15,20.34-15.55,32,1.43,10.38,13.29,18,25.58,20.21s25,.08,37.36-1.8,25.27-3.55,37.32-.61c6.83,1.68,11.65,4.57,15.22,8.25Z" fill="none" stroke="#0d102b" stroke-linecap="round" stroke-linejoin="round" stroke-width="0.71"/><path d="M116.67,274.59a33.69,33.69,0,0,0,15-1.15c13.94-3.87,29.57-10.58,34.57-23.17,8.09-20.32-38.35-14.79-51-18.52a321.36,321.36,0,0,1-77.41-34.82c-4.33-2.68-8.75-5.52-14-6.61s-11.58.09-14.32,4c-3.17,4.5-.41,10.11,1,15.2A28.52,28.52,0,0,1,6,233.34c-6.44,9.17-18.75,17.74-15.34,28,2.67,8,14.35,11.71,24.25,10.74s18.86-5.2,28.34-7.8a88.06,88.06,0,0,1,47.84.83C101.85,268.33,108.24,273.2,116.67,274.59Z" fill="none" stroke="#0d102b" stroke-linecap="round" stroke-linejoin="round" stroke-width="0.71" stroke-dasharray="8 3"/><path d="M21.34,255.51c3-1,5.6-2.69,8.3-4.19a66.61,66.61,0,0,1,31-8c5.13-.07,11.72-.33,13.34-4.38,3.2-8-23.11-21.41-30.67-21.86-7.13-.43-14.16,2.23-19.55,6.13s-9.36,9-12.93,14.15C5.74,244.7,4.64,261,21.34,255.51ZM60.6,66C42.13,68.16,25.13,64.1,9.51,56-1,50.46-21.29,30.84-35.25,35.16a16.34,16.34,0,0,0-10.94,12c-1.15,5.16,0,10.48,1.53,15.57,10.61,35,41.49,65.37,81.24,79.83,72.48,26.37,206.74-8.12,179.12-91-4.7-14.1-15-25.88-27.42-36-11.13-9.13-25.65-22.82-40.19-27.82-7.15-2.46-16.06-2.44-22,1.74-6.35,4.51-7.41,12.19-8.58,19.08C115,23.75,109.3,39.21,97,50.69,87.78,59.21,74.51,64.41,60.6,66Z" fill="none" stroke="#0d102b" stroke-linecap="round" stroke-linejoin="round" stroke-width="0.71"/><path d="M118.3,97.38c2.56,6.81,9.49,12.22,17.59,14.61a44.89,44.89,0,0,0,25.29-.5,48.26,48.26,0,0,0,7-2.78c6.46-3.19,11.88-7.81,15.1-13.42a22.44,22.44,0,0,0-.68-24.13c-20.06-28.8-75.47-3.54-64.33,26.22ZM16.49,422.8c7.27,4,16.81,6.11,25.64,7.08,14.89,1.63,31.36,2.18,42.3,10.69,3.09,2.4,5.56,5.35,8.87,7.55s7.92,3.59,11.83,2.21c3.34-1.18,5.31-4,6.73-6.79,21.75-42.37-31.92-80.14-80.5-64.4-8,2.6-15.65,6.54-20.79,12.26s-7.51,13.41-4.86,20.19C7.59,416.39,11.51,420,16.49,422.8Z" fill="none" stroke="#0d102b" stroke-linecap="round" stroke-linejoin="round" stroke-width="2"/><path d="M64.24,417.92c7.3-1.05,15.55-2.62,19.17-8,14.27-21-37.26-32.15-53.66-24.12-8.8,4.32-15.57,16.57-11.19,24.64,7.18,13.23,32.46,9.33,45.68,7.44Z" fill="none" stroke="#0d102b" stroke-linecap="round" stroke-linejoin="round" stroke-width="0.71" stroke-dasharray="8 3"/><path d="M-142.7,587.75c12.9-14,23.47-29.59,32.62-45.42,18.86-32.6,31.23-71.69,36.71-107.67,5.75-37.8-5-74.67-19.27-110.59-9.8-24.72-24.42-47.68-32.34-72.85-14-44.38-29.47-91-19.6-136.68,5.38-24.94,11-46.95-4.61-70.82a75.37,75.37,0,0,0-24.47-23.41c-10.37-6.16-20-7.32-31.83-10.16C-228,4.75-248-7.73-260.09-24.42a70.13,70.13,0,0,1-13.13-47.69c1.09-11.9,4.83-33.17,17.67-40.4,7.53-4.24,17.5-4,26.37-2.35s17.4,4.68,26.44,5.52c13,1.21,26.59-2.35,36.41-9.57,11.62-8.52,16.19-20.13,15.2-32.6-.92-11.6-1.12-24.66,9-33.79,11.25-10.17,31.08-10.5,46.29-4.95s27.13,15.72,39.5,24.94,26.42,18,42.9,19.76c38.64,4.07,71.2-27.27,75.08-56.83,4.23-32.27-24.14-60.72-33.49-90.89-6.88-22.17-6.56-47,7.68-66.57,11.31-15.57,31.44-29,30.26-47.13-1-15.25-23.13-35.5-41.59-38.06-24-3.33-54.14,10.37-71.68,22.66C-71-405.74-83.34-381.4-97-358.88a294.87,294.87,0,0,1-39.79,51.36c-26.73,27.7-64.93,40.38-107.17,43.38q-8.9.63-17.78.64c-22.07,0-46.91-1.68-68-7.45-22-6-42.77-20.74-62.43-31.32-6.69-3.61-13.55-7.27-21.3-8.85-15.84-3.24-32.08,2.71-46.82,8.51-14.19,5.58-21.61,12.43-13.56,24.7,7.14,10.89,19.22,18.86,28.29,28.54,13.55,14.47,20.64,33.07,37,45.39,14.57,11,34.39,15.41,52.31,22.15,31.29,11.78,46.44,36,55,62.42,17.21,52.89,21.49,111,15.94,165.55-2,19.54-6.08,40.2-15.87,58.19-10.41,19.13-23.15,35.34-24.89,57.1-1.68,21,6.64,40.23,19,58.21,9.08,13.24,20.55,25.88,26,40.62,4.89,13.27-3.73,29.58-14.6,39.65-31.16,28.87-90.33,24.46-130.33,13.41-60.22-16.65-84.65,13.19-122.18,48-27.48,25.52-43,61.93-36.43,96.16a78.26,78.26,0,0,0,26.84,45.11c21.68,18.27,47.42,18,74.3,26.52,28.32,8.94,53.14,25.23,74.87,42.45,21.43,17,41.4,35.42,65.26,50,16.47,10.06,35.12,18.27,55.21,21.92,32.69,5.94,73.33-6.79,100.82-21.11a162.93,162.93,0,0,0,44.69-34.65Z" fill="none" stroke="#0d102b" stroke-linecap="round" stroke-linejoin="round" stroke-width="2"/></g></svg>