<svg xmlns="http://www.w3.org/2000/svg" xmlns:xlink="http://www.w3.org/1999/xlink" width="1368" height="855" viewBox="0 0 1368 855">
    <defs>
        <path id="bjt90o9fca" d="M0 0H1368V855H0z"/>
        <path id="fb8p4bjymc" d="M0.433 0.452L301.564 0.452 301.564 129.803 0.433 129.803z"/>
        <path id="d170le8kad" d="M0.432 0.25L325.833 0.25 325.833 144.128 0.432 144.128z"/>
        <path id="y03m1x84ye" d="M0.433 0.039L258.815 0.039 258.815 96.388 0.433 96.388z"/>
        <path id="iq5c1wppof" d="M0.373 0.31L634.297 0.31 634.297 333.407 0.373 333.407z"/>
        <path id="p73ek4mplh" d="M0.623 0.31L1224.158 0.31 1224.158 678.948 0.623 678.948z"/>
        <path id="tdvleu2htj" d="M0.074 0.31L551.83 0.31 551.83 461.427 0.074 461.427z"/>
        <path id="qoguglq0xl" d="M0.555 0.243L739.6 0.243 739.6 440.137 0.555 440.137z"/>
        <path id="4ucf2f6zcn" d="M0.568 0.31L1143.025 0.31 1143.025 669.268 0.568 669.268z"/>
        <path id="heiwtxvc1p" d="M0.943 0.31L1079.392 0.31 1079.392 658.827 0.943 658.827z"/>
        <path id="9sk3zovf6r" d="M0.121 0.309L679.01 0.309 679.01 350.887 0.121 350.887z"/>
        <path id="12t58ffuot" d="M0.366 0.309L613.887 0.309 613.887 261.819 0.366 261.819z"/>
        <path id="bqgg4l3rev" d="M0.929 0.405L247.393 0.405 247.393 228.818 0.929 228.818z"/>
        <path id="1kzngio3lx" d="M0.747 0.309L430.336 0.309 430.336 416.214 0.747 416.214z"/>
        <path id="t8igxd55az" d="M0.748 0.309L573.51 0.309 573.51 481.473 0.748 481.473z"/>
        <path id="dzxioj1pjB" d="M0.682 0.696L667.369 0.696 667.369 406.717 0.682 406.717z"/>
        <path id="ayh5od58xD" d="M0.433 0.309L743.631 0.309 743.631 419.289 0.433 419.289z"/>
        <path id="3nsz7d4agF" d="M0.432 0.31L758.409 0.31 758.409 901.511 0.432 901.511z"/>
        <path id="r9b01lkcrH" d="M0.05 0.914L624.416 0.914 624.416 352.608 0.05 352.608z"/>
        <path id="wiiokwdgqJ" d="M0.166 0.309L1242.247 0.309 1242.247 690.487 0.166 690.487z"/>
        <path id="2wshbuavuL" d="M0.299 0.31L680.256 0.31 680.256 389.146 0.299 389.146z"/>
        <path id="fbafq5zpbN" d="M0.885 0.786L586.117 0.786 586.117 268.26 0.885 268.26z"/>
        <path id="powsrjepbP" d="M0.791 0.538L443.063 0.538 443.063 156.864 0.791 156.864z"/>
        <path id="7582qko16R" d="M0.233 0.309L546.781 0.309 546.781 317.969 0.233 317.969z"/>
        <path id="zv80thlcqT" d="M0.084 0.261L682.277 0.261 682.277 422.631 0.084 422.631z"/>
        <path id="fr1xyczhmV" d="M0.136 0.927L763.161 0.927 763.161 456.049 0.136 456.049z"/>
        <path id="e4tnqezbzX" d="M0.146 0.31L161.368 0.31 161.368 102.663 0.146 102.663z"/>
        <path id="3xlw8hvwhZ" d="M0.071 0.309L610.528 0.309 610.528 336.468 0.071 336.468z"/>
        <path id="aa1674kkeab" d="M0.822 0.486L675.998 0.486 675.998 354.199 0.822 354.199z"/>
        <path id="vrdmzzp0qad" d="M0.275 0.584L479.65 0.584 479.65 199.83 0.275 199.83z"/>
        <path id="b4fxh9a44af" d="M0.105 0.781L539.103 0.781 539.103 276.217 0.105 276.217z"/>
        <path id="nbn116oj4ah" d="M0.433 0.31L301.564 0.31 301.564 963.717 0.433 963.717z"/>
        <path id="rlydhjmshaj" d="M0.432 0.31L325.833 0.31 325.833 963.717 0.432 963.717z"/>
        <path id="16szi5cnxal" d="M0.433 0.31L258.815 0.31 258.815 963.717 0.433 963.717z"/>
    </defs>
    <g fill="none" fill-rule="evenodd" opacity=".08">
        <g>
            <g>
                <g transform="translate(-169 -106) translate(-1) translate(170 106)">
                    <mask id="zauv6iky9b" fill="#fff">
                        <use xlink:href="#bjt90o9fca"/>
                    </mask>
                    <use fill="#FFF" xlink:href="#bjt90o9fca"/>
                    <g mask="url(#zauv6iky9b)">
                        <g>
                            <g transform="translate(-194 -35) translate(0 835.502)"/>
                            <g transform="translate(-194 -35) translate(0 821.18)"/>
                            <g transform="translate(-194 -35) translate(0 867.331)"/>
                            <g transform="translate(-194 -35) translate(981.54 1.591)">
                                <mask id="40htw77d3g" fill="#fff">
                                    <use xlink:href="#iq5c1wppof"/>
                                </mask>
                                <path stroke="#484C6C" stroke-linecap="round" stroke-linejoin="round" stroke-width="2" d="M247.633 253.385c20.784-7.668 41.772-14.95 62.944-21.84 29.814-9.7 61.632-18.765 93.21-14.441 27.233 3.73 55.867 17.062 80.54 6.744 21.041-8.8 27.635-33.344 49.676-40.119 19.162-5.89 29.168 5.765 46.422 9.111 57.917 11.228 57.9-56.562 50.464-87.124-6.14-25.234-15.478-52.053-39.826-67.862-64.12-41.631-163.503 8.97-238.46-25.511-68.352-31.442-141.667-47.131-221.58-31.043C44.736-1.33-22.702 84.056 7.848 155.913c12.233 28.775 34.098 53.87 51.593 80.684 11.34 17.381 23.182 36.878 21.854 56.773-.83 12.444-16.05 31.913 7.006 39.106 13.51 4.214 26.644-6.66 34.36-16.832 24.63-32.471 84.453-47.309 124.971-62.259z" mask="url(#40htw77d3g)"/>
                            </g>
                            <g transform="translate(-194 -35) translate(509.064 1.591)">
                                <mask id="1ha8ezbfyi" fill="#fff">
                                    <use xlink:href="#p73ek4mplh"/>
                                </mask>
                                <path stroke="#484C6C" stroke-linecap="round" stroke-linejoin="round" stroke-width="2" d="M214.433 6.065c11.98 3.005 23.529 6.57 34.145 11.377 33.956 15.377 68.435 32.353 93.372 57.518 27.252 27.502 30.522 65.958 15.827 99.392-21.008 47.795-97.515 71.763-69.138 129.25 10.98 22.241 33.484 39.415 58.548 51.308 43.204 20.5 92.58 29.423 136.288 49.023 32.869 14.742 66.747 27.617 103.037 35.563 36.415 7.973 75.6 13.926 105.252 34.752 31.6 22.194 45.621 56.698 60.71 88.776 17.376 36.936 39.607 76.04 80.967 99.206 45.806 25.656 112.693 20.206 157.163-5.616 21.483-12.475 39.337-30.75 43.943-52.245 2.69-12.557.78-25.435.72-38.191-.062-12.755 2.085-26.243 11.5-36.3 17.801-19.012 55.06-18.763 80.993-16.678 38.209 3.071 72.395 12.995 106.527 27.457 37.77 16.005 75.664 34.498 117.845 37.785 49.633 3.867 99.446-14.706 134.967-43.88 35.523-29.172 57.91-67.99 71.24-108.058 13.694-41.154 5.402-85.085 23.534-125.229 12.531-27.744 39.894-52.776 75.032-57.242 31.13-3.956 56.535 8.617 83.752 18.667 21.312 7.869 44.773 20.195 68.785 20.448 51.662.542 92.788-37.11 114.23-76.321 34.175-62.497 37.019-132.377 26.025-199.496-4.967-30.328-10.36-60.666-18.75-90.488-19.915-70.814-70.02-172.96-177.545-162.366-41.27 4.065-79.608 19.918-114.535 38.7-37.269 20.043-72.928 44.965-91.097 78.706-27.277 50.66 22.17 78.994 14.16 122.528-7.878 42.825-71.285 67.398-117.606 67.218-115.962-.455-230.68-84.355-295.463-157.902-22.5-25.542-47.829-62.456-88.833-65.886-45.753-3.825-94.842 8.168-133.296 28.486-29.011 15.329-82.557 53.739-118.725 37.881-15.076-6.611-21.288-21.773-24.436-35.737-12.324-54.681-3.166-109.765-2.042-165.117.672-33.112 8.085-74.025-9.202-104.957-7.25-12.975-22.848-23.819-39.962-22.757-10.386.646-19.661 5.42-28.467 10.06-45.07 23.75-90.186 47.665-135.895 70.292-40.704 20.15-86.537 33.774-134.445 33.777-34.526.002-73.5-6.253-103.51-21.058-23.964-11.822-35.136-36.678-61.741-45.593-42.7-14.307-102.22 12.469-136.693 31.625-41.762 23.207-79.945 53.55-105.045 90.083-38.32 55.772-32.877 124.591 7.649 178.294 22.198 29.417 58.58 48.89 96.095 62.498 26.223 9.511 56.335 13.477 84.12 20.447z" mask="url(#1ha8ezbfyi)"/>
                            </g>
                            <g transform="translate(-194 -35) translate(1181.393)">
                                <mask id="zedc0cno6k" fill="#fff">
                                    <use xlink:href="#tdvleu2htj"/>
                                </mask>
                                <path stroke="#484C6C" stroke-linecap="round" stroke-linejoin="round" stroke-width="2" d="M481.519 187.438c-7.45 12.96-17.967 24.759-33.06 34.708-22.148 14.604-50.507 22.488-78.711 21.885-16.19-.347-32.487-3.226-48.279 1.11-11.403 3.13-22.591 8.56-33.414 12.935-35.212 14.233-64.739 10.148-102.49 8.355-46.553-2.21-93.61 9.456-131.901 31.54-32.3 18.63-67.472 51.547-48.006 87.456 3.943 7.269 11.413 12.882 19.716 16.83 26.232 12.474 58.612 9.255 88.618 6.522 78.337-7.133 157.488 25.564 229.707 46.56 11.397 3.313 30.113 8.58 42.348 4.745 13.678-4.288 19.048-20.155 27.384-29.052 18.643-19.897 52.305-26.394 82.204-22.582 22.795 2.907 48.255 10.283 66.685 22.104 14.486 9.29 21.333 19.867 41.252 20.698 45.257 1.887 80.126-35.5 89.46-68.937 5.42-19.415 5.424-39.87 13.363-58.671 9.812-23.234 48.634-55.42 71.37-22.333 8.256 12.018 8.433 26.565 11.295 40.215 2.864 13.648 10.4 28.441 26 33.152 16.892 5.1 35.917-4.48 45.113-17.37 9.196-12.891 11.27-28.315 14.596-43.061 6.622-29.35 19.51-58.498 43.43-80.694 35.666-33.095 73.325-28.793 120.642-32.438 49.75-3.835 75.843-50.275 90.46-90.189 16.728-45.672 31.344-95.001 14.017-140.517-17.326-45.515-79.19-82.273-131.869-63.716-52.01 18.321-64.28 73.78-94.084 113.826-32.291 43.392-85.731 61.694-144.13 68.557-34.466 4.052-71.688-1.261-105.485-6.682-36.076-5.787-72.309-10.88-108.663-15.273-11.828-1.43-24.22-2.743-35.47.626-17.99 5.389-21.263 22.186-22.397 36.147-2.344 28.847-5.237 58.38-19.701 83.544z" mask="url(#zedc0cno6k)"/>
                            </g>
                            <g transform="translate(-194 -35) translate(287.94 523.582)">
                                <mask id="igiop7ts4m" fill="#fff">
                                    <use xlink:href="#qoguglq0xl"/>
                                </mask>
                                <path stroke="#484C6C" stroke-linecap="round" stroke-linejoin="round" stroke-width="2" d="M251.959 673.983c-24.158 15.91-46.633 34.18-67.253 55.663-13.814 14.392-31.864 31.455-53.424 27.287-17.43-3.368-26.407-19.052-32.959-32.909L42.172 605.262C26.694 572.524-2.37 533.382.794 497.494c3.754-42.594 47.208-77.076 95.708-91.04 37.857-10.902 80.233-12.248 114.083-30.076 23.69-12.477 40.25-32.095 49.294-54.232 7.576-18.541 9.878-38.848 6.682-58.209-7.244-43.882-38.715-69.06-65.022-104.62-25.286-34.183-51.913-69.855-74.616-105.578-6.153-9.682-12.021-20.117-11.245-31.05.775-10.933 10.566-22.184 23.724-22.446 13.436-.257 23.186 10.008 31.67 18.684 29.8 30.474 71.437 52.801 117.099 62.792 25.479 5.575 52.135 7.424 76.925 14.845 25.43 7.612 43.155 21.1 55.756 40.732 12.902 20.099 8.395 40.966 10.317 63.186 2.645 30.596 20.779 59.989 48.824 79.896 28.044 19.907 65.593 30.161 102.389 28.33 22.765-1.135 44.877-6.65 67.484-9.157 22.606-2.507 47.047-1.644 66.116 8.766 52.001 28.387 5.518 121.044-19.46 154.767-26.649 35.977-72.057 74.422-121.753 87.554-53.666 14.18-106.92 32.35-159.858 49.68-60.08 19.67-114.85 41.987-162.952 73.665z" mask="url(#igiop7ts4m)"/>
                            </g>
                            <g transform="translate(-194 -35) translate(590.196)">
                                <mask id="9by6uf1coo" fill="#fff">
                                    <use xlink:href="#4ucf2f6zcn"/>
                                </mask>
                                <path stroke="#484C6C" stroke-linecap="round" stroke-linejoin="round" stroke-width=".709" d="M1430.11 493.34c30.591-42.219 40.115-93.93 49.56-141.818 6.461-32.77 15.254-67.096 38.343-94.84 21.447-25.773 58.291-30.748 94.111-28.21 38.6 2.736 72.699 16.294 112.048 9.997 23.212-3.715 45.282-12.938 61.93-27.033 16.667-14.108 27.618-31.81 35.269-50.703 4.69-11.581 8.14-23.608 10.907-35.53 12.222-52.666 13.589-107.454-.515-159.792-21.319-79.106-89.196-185.214-205.19-163.585-56.173 10.474-101.571 51.189-113.333 98.2-9.514 38.03 1.98 84.633-27.47 117.538-25.038 27.976-66.469 43.693-107.148 48.32-79.88 9.085-160.828-10.514-224.005-52.387-51.158-33.906-86.008-80.072-127.744-121.198-60.261-59.382-150.1-30.251-211.1 13.168-17.688 12.592-34.937 26.296-56.33 33.898-100.864 35.846-80.172-92.59-73.854-136.89 7.222-50.648 1.823-109.653-20.176-157.42-6.79-14.74-19.294-30.795-38.217-31.12-10.409-.17-19.88 4.644-28.673 9.293-26.99 14.267-54.879 33.65-84.169 44.246-20.6 7.453-45.916 12.368-67.695 17.456-58.07 13.566-120.814 13.059-178.491-1.677-27.3-6.976-53.622-17.062-81.8-20.909C81.748-351.94 23.443-262.959 5.018-191.117-4.459-154.173.906-117.019 23.96-84.343c23.493 33.298 68.837 54.34 108.657 72.22C173.652 6.304 216.4 23.48 250.24 50.208c52.494 41.465 80.435 116.257 28.733 165.338-19.373 18.391-48.776 37.973-52.705 63.874-4.26 28.078 32.71 47.175 57.366 59.848 51.162 26.296 106.032 52.685 160.22 74.077 47.188 18.628 104.007 10.877 149.326 33.95 25.46 12.96 43.314 34.777 57.018 56.363 19.71 31.045 28.114 65.606 48.085 96.735 16.01 24.956 39.076 47.623 69.487 60.172 49.051 20.241 127.536 4.333 152.627-38.97 8.313-14.348 11.046-30.414 14.603-46.072 3.556-15.66 8.308-31.677 19.813-44.398 15.418-17.048 40.898-24.82 65.842-25.3 11.207-.216 21.91-.324 32.367-.038 23.292.638 45.35 3.233 68.988 10.96 35.892 11.732 67.218 31.846 104.476 40.917 36.072 8.783 75.248 5.645 109.83-6.076 26.163-8.866 59.226-20.144 77.328-38.688 6.09-6.237 11.55-12.776 16.465-19.56z" mask="url(#9by6uf1coo)"/>
                            </g>
                            <g transform="translate(-194 -35) translate(653.83 1.591)">
                                <mask id="0pqhgrt3zq" fill="#fff">
                                    <use xlink:href="#heiwtxvc1p"/>
                                </mask>
                                <path stroke="#484C6C" stroke-linecap="round" stroke-linejoin="round" stroke-width=".709" d="M1670.774 189.277c16.467-9.562 31.056-21.504 42.855-36.446 30.59-38.741 37.34-88.902 35.714-134.245-1.502-41.871-12.503-96.902-43.183-131.037-38.42-42.746-121.222-67.204-179.685-38.515-25.155 12.344-47.58 42.721-55.117 66.025-11.474 35.477-16.633 69.156-41.727 100.7-24.58 30.896-63.648 54.52-108.59 58.232-49.821 4.114-107.727 1.857-154.608-13.49-59.184-19.377-107.194-45.338-148.006-86.888-26.136-26.609-59.156-60.963-95.648-78.401-37.555-17.947-97.237-3.059-133.294 10.677-22.028 8.392-42.527 19.646-60.242 33.434-15.531 12.09-30.95 24.642-52.961 27.89-26.567 3.92-51.012-9.327-64.521-27.691-21.896-29.765-11.74-71.362-8.34-104.056 5.184-49.822 11.476-100.544-11.57-148.167-7.134-14.739-18.326-30.204-36.797-34.123-13.394-2.84-27.36 1.148-40.348 5.085-39.95 12.11-79.36 27.168-121 33.66-54.645 8.52-109.952 14.078-165.457 16.63-35.494 1.63-71.396 2.071-105.882 9.263-23.06 4.807-43.205 12.592-60.119 23.11-28.733 17.87-48.141 43.63-56.674 76.098C-7-135.139 5.747-86.005 47.314-50.395c43.899 37.609 106.273 56.031 149.46 96.037 45.705 42.34 84.282 122.222 37.447 173.415-16.464 17.995-44.996 32.722-51.476 55.984-7.81 28.04 32.729 46.235 58.056 56.056 35.825 13.893 58.966 38.037 93.809 53.42 23.501 10.378 47.481 23.498 73.088 29.267 28.58 6.44 58.546 10.01 87.988 12.225 21.477 1.615 44.534 2.697 61.59 13.703 12.346 7.966 18.457 20.662 25.555 31.86 11.867 18.724 20.96 38.752 31.122 58.088 8.288 15.77 12.2 33.108 21.41 48.92 13.273 22.784 32.1 43.328 55.064 59.915 30.826 22.265 84.583 30.027 116.249 3.763 34.972-29.007 40.427-67.543 54.487-104.635 13.238-34.924 67.874-41.437 104.886-43.586 46.376-2.693 96.69-10.978 136.194 14.764 15.872 10.344 30.19 22.974 48.839 29.328 18.992 6.47 40.29 5.667 60.743 4.324 30.748-2.017 62.251-5.227 89.471-17.322 40.244-17.88 65.669-52.885 80.76-88.767 8.799-20.92 16.52-43.78 21.782-65.303 7.618-31.157 11.324-64.753 26.008-94.402 10.016-20.222 27.002-38.906 50.773-48.166 31.735-12.363 67.857-6.399 101.56-8.345 31.368-1.811 62.966-15.99 88.595-30.87z" mask="url(#0pqhgrt3zq)"/>
                            </g>
                            <g transform="translate(-194 -35) translate(967.222 1.591)">
                                <mask id="rmmks0wocs" fill="#fff">
                                    <use xlink:href="#9sk3zovf6r"/>
                                </mask>
                                <path stroke="#484C6C" stroke-linecap="round" stroke-linejoin="round" stroke-width=".709" d="M604.703 220.043c21.38-.502 38.39-15.55 49.19-31.044 33.474-48.018 40.338-142.325-22.406-178.124C606.04-3.643 572.58-2.255 541.828-.3c-52.576 3.342-104.98 12.064-155.752-.588-51.602-12.859-96.008-33.642-145.11-51.59-70.01-25.588-149.812-19.136-189.527 37.747-34.731 49.744-68.685 110.933-41.373 169.01 10.624 22.591 28.748 42.073 43.86 62.814 15.111 20.743 27.622 44.28 24.986 68.444-1.093 10.002-4.755 19.716-5.837 29.718-1.081 10.003.893 20.953 9.319 28.136 10.685 9.106 28.9 9.317 42.702 3.845 13.801-5.473 24.155-15.441 33.858-25.28 34.404-34.892 93.809-51.096 143.138-67.94 32.806-11.204 57.314-21.407 94.641-19.598 24.96 1.21 50.603 6.37 75.639 5.14 17.958-.88 34.996-7.367 48.754-16.747 17.956-12.242 29.276-16.255 52.517-9.186 9.794 2.978 19.697 6.467 30.123 6.43.314 0 .626-.004.937-.012z" mask="url(#rmmks0wocs)"/>
                            </g>
                            <g transform="translate(-194 -35) translate(992.675 1.591)">
                                <mask id="65j0sn5h4u" fill="#fff">
                                    <use xlink:href="#12t58ffuot"/>
                                </mask>
                                <path stroke="#484C6C" stroke-dasharray="8 3" stroke-linecap="round" stroke-linejoin="round" stroke-width=".709" d="M207.625-6.43C141.952-16.128 70.08 4.274 26.996 46.94c-41.043 40.653-30.067 92.604 1.994 134.214 15.709 20.388 30.218 50.643 51.562 66.519 21.466 15.966 53.344 17.116 79.724 9.884 29.634-8.123 54.649-24.684 81.897-37.325 51.557-23.916 112.406-33.536 170.96-27.523 21.908 2.25 43.308 21.503 64.726 11.784 18.337-8.32 23.051-29.154 42.78-36.4 20.834-7.652 45.961 5.612 67.402-.782 15.786-4.707 24.846-19.222 25.75-33.144.904-13.922-4.717-27.501-10.261-40.66-10.757-25.532-27.716-47.788-61.285-54.631-22.921-4.674-47-2.209-70.297.922-23.296 3.132-46.866 6.919-70.328 4.804-34.806-3.137-65.25-18.593-96.259-30.808C272.632.9 242.225-1.321 207.625-6.43z" mask="url(#65j0sn5h4u)"/>
                            </g>
                            <g transform="translate(-194 -35) translate(1485.831 152.778)">
                                <mask id="m5j55nr61w" fill="#fff">
                                    <use xlink:href="#bqgg4l3rev"/>
                                </mask>
                                <path stroke="#484C6C" stroke-dasharray="8 3 4 3" stroke-linecap="round" stroke-linejoin="round" stroke-width=".709" d="M377.455 3.462c-17.772-3.716-35.78-4.448-53.457.076-37.105 9.496-60.398 39.093-84.51 64.519-23.429 24.705-46.99 37.234-82.47 45.369-30.655 7.028-43.06 26.5-68.164 43.322-21.662 14.516-48.976 22.455-72.632 34.324C9.257 194.566 1.493 199.1.959 205.877c-.775 9.824 13.439 15.054 24.991 16.95 85.838 14.08 177.25 3.124 254.905-30.548 41.276-17.898 87.607-39.345 108.759-74.76 10.1-16.908 23.93-35.732 46.366-37.995 11.965-1.207 25.431 2.529 35.381-3.156 10.113-5.779 10.494-18.881 4.114-27.625-6.38-8.743-17.485-14.16-28.136-19.217-21.9-10.399-45.673-21.001-69.884-26.064z" mask="url(#m5j55nr61w)"/>
                            </g>
                            <g transform="translate(-194 -35) translate(1302.886 1.591)">
                                <mask id="yk7erntx1y" fill="#fff">
                                    <use xlink:href="#1kzngio3lx"/>
                                </mask>
                                <path stroke="#484C6C" stroke-linecap="round" stroke-linejoin="round" stroke-width=".709" d="M592.684 280.19c8.586-7.326 19.237-13.985 29.822-15.034 17.623-1.745 32.626 9.905 52.062 5.662 15.828-3.454 25.018-17.145 29.942-30.141 7.738-20.425 10.325-43.631 28.22-59.013 18.844-16.198 48.808-18.504 75.874-17.766 32.185.878 83.378 5.533 112.565-7.329 29.141-12.84 43.008-44.149 52.386-68.662 15.58-40.722 38.521-106.526-6.252-141.382-48.763-37.962-88.855.291-113.101 35.36C800.298 59.85 701.756 117.465 592.177 113.12c-18.077-.717-36.293-2.543-54.408-2.082-35.68.91-81.152 15.918-105.42 37.436-18.33 16.251-31.94 35.765-48.98 52.96-32.79 33.094-75.052 57.1-123.194 70.266-56.72 15.513-100.24 45.393-163.52 44.294-19.229-.335-38.689-3.305-57.533-.097-18.845 3.209-37.6 15.059-38.353 31.066-.717 15.266 15.553 28.155 33.266 32.121 22.552 5.049 46.477 2.514 69.41 3.643 25.547 1.259 47.174 9.41 69.95 18.595 19.13 7.715 40.199 15.382 61.903 14.867 23.076-.546 41.394-11.771 63.372-16.033 35.733-6.928 73.234-7.644 109.252-1.746 33.386 5.466 69.809 16.062 99.666 2.474 28.04-12.762 31.49-36.422 41.586-58.85 7.579-16.835 19.256-35.926 32.047-50.521 3.054-3.487 6.976-7.496 11.463-11.324z" mask="url(#yk7erntx1y)"/>
                            </g>
                            <path stroke="#484C6C" stroke-linecap="round" stroke-linejoin="round" stroke-width=".709" d="M1457.874 150.35c26.506-3.003 56.925-13.951 60.952-36.076 4.606-25.31-30.222-44.318-60.822-44.572-30.6-.253-60.004 10.652-90.59 11.46-54.825 1.45-93.944-36.156-139.068-56.697-34.204-15.57-75.206-20.396-113.216-13.324-42.27 7.863-114.655 41.733-97.64 87.302 5.841 15.648 20.102 27.922 33.822 39.626 27.796 23.712 41.22 56.227 83.418 65.148 33.125 7.001 64.523-4.78 92.074-19.063 32.252-16.723 66.406-28.333 104.468-31.5 19.382-1.613 32.89 3.13 51.21 5.277 23.741 2.782 52.423-2.776 75.392-7.58z" transform="translate(-194 -35)"/>
                            <path stroke="#484C6C" stroke-linecap="round" stroke-linejoin="round" stroke-width=".709" d="M1050.047 98.715c9.116 6.041 19.544 11.64 25.828 15.885 22.29 15.053 45.173 29.53 67.756 44.273 8.157 5.325 17.018 10.88 27.354 11.365 24.219 1.134 69.12-19.128 85.556-33.017 12.273-10.372 20.447-25.278 16.86-39.55-5.087-20.248-42.355-56.334-62.536-68.115-33.689-19.666-85.198-11.803-120.816-.814-23.87 7.366-69.764 28.482-56.99 54.31 2.557 5.17 9.307 10.573 16.988 15.663zM1435.552 134.841c67.067-3.302 27.57-64.5-15.366-45.12-12.06 5.445-23.395 20.74-19.467 32.723 4.711 14.374 18.159 13.218 34.833 12.397z" transform="translate(-194 -35)"/>
                            <g transform="translate(-194 -35) translate(1159.712 1.591)">
                                <mask id="yowrq6rkoA" fill="#fff">
                                    <use xlink:href="#t8igxd55az"/>
                                </mask>
                                <path stroke="#484C6C" stroke-linecap="round" stroke-linejoin="round" stroke-width=".709" d="M1043.198 211.47c9.952-.09 19.87-.46 29.619-1.999 53.044-8.376 83.038-52.164 103.406-90.03C1196.6 81.56 1201.963 38.1 1194.18-2.742c-5.269-27.658-16.144-55.265-37.383-76.974-21.239-21.709-54.076-36.746-87.616-34.751-36.393 2.164-75.74 21.054-89.762 49.637-7.804 15.907-17.811 30.98-25.952 46.486-7.366 14.033-11.977 27.385-23.131 40.023-20.663 23.412-50.744 39.842-82.834 50.519-25.267 8.407-52.338 8.286-78.817 10.006-58.035 3.77-108.09-13.61-160.637-30.627-20.278-6.567-66.133-29.953-87.616-18.438-10.025 5.373-15.314 15.346-16.93 25.183-1.616 9.837-.112 19.814.496 29.73 2.157 35.15-7.235 70.745-26.889 101.905-17.605 27.91-55.557 47.08-94.018 43.11-12.185-1.256-24.315-4.635-36.477-3.232-16.075 1.853-28.964 11.6-43.564 17.5-29.583 11.953-64.346 7.612-97.16 5.848-39.484-2.123-70.234 8.75-105.93 20.48-33.939 11.154-73.539 32.543-90.68 60.188-14.236 22.96-11.06 54.294 12.555 71.054 16.591 11.774 39.683 14.731 61.478 15.024 43.092.58 86.31 3.804 128.467 11.464 23.457 4.261 49.28 5.777 71.919 12.526 20.098 5.991 41.833 13.145 60.358 22.01 15.311 7.326 28.11 16.69 47.412 15.43 27.598-1.802 35.12-15.492 49.42-31.11 13.977-15.267 46.306-26.924 69.188-25.675 37.508 2.047 63.87 23.47 95.676 36.322 40.54 16.381 86.698-14.848 104.266-43.552 15.179-24.8 20.436-52.87 31.035-79.27 5.386-13.412 17.413-28.982 34.087-26.301 15.39 2.475 20.51 18.2 24.26 30.876 4.246 14.353 11.047 28.789 24.034 38.866 1.3 1.008 2.627 1.996 3.993 2.94 45.91 31.699 64.305-28.148 71.907-55.694 12.59-45.627 28.964-103.123 92.85-114.767 16.669-3.04 33.895-2.37 51.012-2.524z" mask="url(#yowrq6rkoA)"/>
                            </g>
                            <path stroke="#484C6C" stroke-linecap="round" stroke-linejoin="round" stroke-width="2" d="M1137.002 124.334c4.936 2.18 10.095 4.41 15.68 4.563 12.764.35 21.934-9.734 28.763-18.722 5.912-7.78 11.904-15.71 14.8-24.595 2.893-8.886 2.273-19.035-4.264-26.46-7.157-8.125-19.756-11.452-31.706-13.03-27.674-3.655-98.624-3.477-97.592 32.327.762 26.483 52.057 36.086 74.319 45.917zM1469.923 503.224c.03-6.782-2.335-12.995-8.963-17.95-9.614-7.187-23.432-8.883-36.33-8.66-12.899.223-25.86 2.03-38.636.523-18.15-2.141-34.114-10.707-50.7-17.225-28.241-11.097-75.19-10.699-56.945 26.238 4.554 9.22 12.24 17.085 18.12 25.765 12.166 17.958 16.263 38.803 23.34 58.573 7.076 19.77 18.566 39.988 39.898 50.386 28.192 13.74 69.149 3.47 83.626-20.97 8.449-14.263 8.267-31.696 10.745-47.716 2.07-13.373 15.77-32.792 15.845-48.964z" transform="translate(-194 -35)"/>
                            <path stroke="#484C6C" stroke-dasharray="8 3" stroke-linecap="round" stroke-linejoin="round" stroke-width=".709" d="M1393.545 495.862c-14.825-4.303-53.9-13.28-65.532-1.31-17.77 18.286 23.217 48.218 26.872 67.052 1.655 8.531.733 18.405 8.057 24.48 6.217 5.156 16.495 5.364 24.524 2.467 44.09-15.904 58.185-77.564 6.08-92.69z" transform="translate(-194 -35)"/>
                            <path stroke="#484C6C" stroke-linecap="round" stroke-linejoin="round" stroke-width=".709" d="M1373.69 541.67c10.282 3.462 20.89 3.885 27.95-1.308 10.005-7.361 7.229-22.094-2.995-29.246-7.705-5.392-46.096-12.721-53.326-4.61-9.69 10.869 8.747 28.554 28.37 35.164z" transform="translate(-194 -35)"/>
                            <path stroke="#484C6C" stroke-linecap="round" stroke-linejoin="round" stroke-width=".709" d="M1297.378 567.657c24.462 45.876 64.1 92.48 122.62 79.416 28.412-6.343 41.613-35.134 52.548-54.947 14.441-26.167 26.653-53.138 38.869-80.063 1.406-3.102 2.83-6.268 3.013-9.58 2.09-37.927-82.08-45.338-111.095-46.26-40.564-1.288-78.51-31.588-120.483-18.48-43.724 13.66-17.457 52.12-8.286 77.67 5.187 14.448 12.704 33.284 22.814 52.244z" transform="translate(-194 -35)"/>
                            <path stroke="#484C6C" stroke-linecap="round" stroke-linejoin="round" stroke-width="2" d="M1255.86 630.3c-27.413-35.848-32.752-79.141-65.454-113.621-35.509-37.441-93.375-57.396-150.37-50.783-10.982 1.274-22.565 4.514-32.752.86-10.753-3.858-15.797-13.867-21.99-22.15-13.431-17.958-47.472-20.74-69.53-27.078-27.841-8.001-55.157-17.61-79.974-30.958-12.694-6.827-25.558-14.859-40.632-15.692-23.806-1.316-42.688 15.213-61.195 27.768-26.017 17.65-57.776 29.357-90.942 33.52-33.879 4.25-71.05 1.34-99.593 17.136-52.69 29.16-33.258 90.592 18.484 109.73 46.374 17.152 99.186 21.176 143.472 42.426 34.975 16.782 78.717 59.457 79.315 94.658.378 22.19-13.873 44.85-4.991 65.769 6.076 14.314 22.183 24.386 39.442 29.23 26.128 7.332 60.992 10.914 87.234 3.797 29.697-8.052 57.71-23.787 90.13-22.157 52.283 2.63 62.145 48.057 96.606 70.298 23.126 14.925 56.171 13.666 83.886 5.884 27.713-7.783 52.783-21.164 80.46-29.035 39.363-11.195 81.972-10.737 122.862-17.077 40.888-6.339 83.694-22.234 101.377-53.623 5.134-9.112 6.825-21.768-2.949-27.679-6.987-4.226-16.545-2.943-25.113-2.067-75.603 7.727-158.316-37.542-197.783-89.155z" transform="translate(-194 -35)"/>
                            <g transform="translate(-194 -35) translate(1065.853 557.002)">
                                <mask id="ebl98ov1tC" fill="#fff">
                                    <use xlink:href="#dzxioj1pjB"/>
                                </mask>
                                <path stroke="#484C6C" stroke-linecap="round" stroke-linejoin="round" stroke-width="2" d="M200.716 491.492c-10.475-1.262-21.007-1.482-30.159-1.238-30.655.819-61.448-.95-90.334-10.23-36.082-11.591-67.906-35.857-77.2-67.13-9.625-32.382 10.852-75.504 53.783-80.2 15.436-1.688 31.216-1.593 46.298-4.806 26.688-5.687 48.615-21.084 73.087-31.62 33.944-14.612 72.463-19.721 110.276-24.29 37.814-4.568 76.334-8.952 111.002-22.334 27.81-10.734 51.02-27.468 65.896-49.866 15.833-23.839 12.048-44.436 19.67-70.17 11.32-38.203 49.04-64.692 87.708-84.36 44.719-22.745 87.988-39.398 140.511-22.574 23.113 7.403 44.278 18.541 67.291 26.154 32.032 10.597 65.916 10.115 96.978-2.476 25.485-10.328 55.977-47.786 84.8-45.56 20.574 1.588 36.456 18.965 30.905 35.787-5.51 16.694-24.463 29.677-41.317 38.257-17.29 8.81-36.245 16.042-50.084 28.378-34.757 30.978-11.705 104.557 2.272 139.151 13.541 33.514 28.608 68 62.005 91.192 21.26 14.762 45.447 26.932 63.318 44.535 25.412 25.03 20.314 66.313-14.602 84.2-36.602 18.75-103.55 10.096-141.68-.002-48.346-12.802-89.423-37.744-142.291-38.546-36.13-.55-80.304 12.495-104.716 35.282-27.468 25.64-38.062 67.063-55.685 97.565-10.665 18.457-37.99 68.381-71.792 50.3-10.527-5.63-17.69-14.581-25.9-22.446-36.97-35.423-101.104-49.108-153.963-32.852-15.93 4.9-34.703 12.004-48.496 3.752-17.623-10.545-8.868-33.525-23.344-47.14-10.54-9.915-27.312-14.674-44.237-16.713z" mask="url(#ebl98ov1tC)"/>
                            </g>
                            <g transform="translate(-194 -35) translate(0 1.591)">
                                <mask id="vw7n4shv6E" fill="#fff">
                                    <use xlink:href="#ayh5od58xD"/>
                                </mask>
                                <path stroke="#484C6C" stroke-linecap="round" stroke-linejoin="round" stroke-width="2" d="M177.035 291.374c15.055 10.528 31.089 20.302 48.255 29.186 33.189 17.177 68.73 35.407 103.711 49.393 60.53 24.2 121.961 38.52 188.265 46.079 53.969 6.152 116.339 5.818 163.751-21.033 55.012-31.154 58.802-96.249 61.92-146.53 3.278-52.866-3.842-111.512-47.778-152.838-25.73-24.2-66.047-38.27-96.68-57.767C537.79-.762 505.023-51.184 474.952-107.97c-24.725-46.688-66.994-67.15-122.699-84.47-12.4-3.858-25.47-7.78-38.564-6.153-17.448 2.167-30.773 13.507-45.249 21.894-37.054 21.469-88.64 24.089-128.559 6.53-19.785-8.705-38.957-22.344-61.214-20.383-25.24 2.224-41.361 23.734-48.109 44.091-6.748 20.357-8.508 42.58-22.76 60.053C-7.343-67.839-35.089-56.745-44.442-35.7c-8.2 18.455.316 38.884 9.384 57.055 16.222 32.508 34.421 64.334 54.502 95.314 42.229 65.15 90.088 127.503 157.59 174.706z" mask="url(#vw7n4shv6E)"/>
                            </g>
                            <g transform="translate(-194 -35) translate(0 1.591)">
                                <mask id="xhlohb82eG" fill="#fff">
                                    <use xlink:href="#3nsz7d4agF"/>
                                </mask>
                                <path stroke="#484C6C" stroke-linecap="round" stroke-linejoin="round" stroke-width=".709" d="M442.013 652.372c23.69 29.725 47.95 62.2 66.33 93.967 20.814 35.975 28.453 82.061-.733 113.73-19.313 20.954-63.862 41.39-95.889 41.442-62.457.098-84.31-46.249-126.296-75.233-24.327-16.792-56.237-32.557-88.383-26.421-13.603 2.596-26.708 7.066-38.556.145-11.302-6.601-18.873-23.996-23.692-34.254-12.08-25.715-16.2-53.519-21.946-80.542-14.646-68.89-44.792-134.393-71.878-200.326-12.391-30.163-29.246-62.553-31.644-94.624-2.04-27.305-14.964-49.968-20.73-76.692-5.034-23.333-2.702-48.64 12.344-68.752 17.766-23.745 41.974-40.196 32.577-70.2-9-28.736-27.116-55.246-48.492-78.781-26.869-29.583-59.401-55.184-91.052-81.269-16.914-13.94-34.074-28.633-42.536-47.17-8.462-18.537-5.947-42.038 12.206-54.85 20.262-14.299 50.787-10.568 75.586-18.452 22.103-7.027 38.66-23.26 48.205-41.315C-3.021-165.278.288-185.158 2.389-204.81c1.247-11.67 3.015-24.847 14.18-31.954 8.89-5.658 21.517-5.584 32.016-2.376 10.497 3.21 19.44 9.1 28.488 14.58 32.737 19.83 70.311 35.63 110.618 38.535 40.307 2.904 83.575-8.848 108.242-35.599 9.189-9.964 19.064-23.198 34.059-21.953 16.429 1.366 22.113 18.38 31.53 29.692 14.282 17.155 40.988 22.69 64.342 30.218 45.072 14.532 52.176 47.953 69.42 81.627 19.044 37.194 44.435 72.126 75.207 103.382 28.06 28.504 72.643 38.037 108.312 58.923 46.924 27.476 63.546 60.059 73.306 106.195 9.092 42.977 7.035 87.781 2.017 131.051-3.986 34.358-6.56 68.149-40.788 92.067-25.821 18.043-59.434 26.436-92.694 30.881-20.553 2.746-41.342 4.16-62.025 6.124-12.787 1.215-25.533 2.639-38.161 4.718-15.91 2.62-30.035 9.863-41.477 19.287-16.032 13.205-11.455 43.044-37.25 47.296-8.984 1.48-18.424.219-27.315 2.047-17.465 3.592-28.784 18.616-30.977 33.512-5.978 40.627 25.347 77.72 50.995 109.485 2.514 3.114 5.043 6.264 7.579 9.445z" mask="url(#xhlohb82eG)"/>
                            </g>
                            <g transform="translate(-194 -35) translate(1108.806 611.11)">
                                <mask id="ujxxlynvaI" fill="#fff">
                                    <use xlink:href="#r9b01lkcrH"/>
                                </mask>
                                <path stroke="#484C6C" stroke-linecap="round" stroke-linejoin="round" stroke-width=".709" d="M935.723 359.855c3.914-11.718 3.918-24.354-.424-35.976-10.17-27.21-40.308-45.145-62.647-66.746-15.181-14.68-23.537-32.749-37.933-47.648-9.24-9.563-20.806-16.522-28.689-27.125-22.273-29.965-27.987-69.595-17.97-103.498 4.433-15.006 10.442-33.886-4.101-43.497-9.43-6.23-22.832-4.796-34.873-4.922-39.708-.415-74.992-20.905-113.922-27.423-48.87-8.182-102.484 7.952-133.753 40.25-41.652 43.025-44.598 101.85-96.117 140.884-30.719 23.273-71.004 35.796-111.234 44.426-40.23 8.631-81.582 13.94-120.764 25.438-47.07 13.813-84.035 41.776-134.19 52.32-10.189 2.141-21.1 4.106-28.59 10.24-7.13 5.842-9.839 14.515-10.341 22.83-3.28 54.28 58.965 67.776 111.497 68.602 50.45.794 102.195-2.778 127.098 41.817 5.978 10.703 9.702 23.217 21.138 30.202 15.425 9.423 36.762 4.407 55.74 2.358 29.235-3.155 59.688 2.11 84.99 14.696 15.963 7.94 31.996 19.158 50.473 17.401 23.9-2.272 36.234-24.055 47.25-41.847 14.096-22.764 33.025-43.433 55.552-60.875 20.257-15.685 43.98-36.699 70.719-43.838 48.15-12.857 102.369-10.273 147.982 8.1 27.567 11.103 53.279 27.849 83.808 29.887 24.72 1.65 50.122-7.484 65.614-23.596 6.353-6.608 10.965-14.312 13.687-22.46z" mask="url(#ujxxlynvaI)"/>
                            </g>
                            <path stroke="#484C6C" stroke-linecap="round" stroke-linejoin="round" stroke-width=".709" d="M486.665 479.102c-4.959 10.398-6.232 22.343-2.426 35.576 6.73 23.402 28.356 42.575 54.087 53.43 30.264 12.769 65.445 13.226 97.415 22.049 36.81 10.157 69.167 20.143 94.771 46.005 16.406 16.571 28.422 37.388 32.55 58.692 3.29 16.975-5.211 29.454-6.165 45.667-2.564 43.589 54.777 71.603 100.124 73.977 30.727 1.607 61.317-4.9 90.124-13.966 15.714-4.944 32.083-10.775 48.683-8.66 39.455 5.03 60.418 42.125 87.978 62.023 34.716 25.064 83.67 10.027 121.332-4.497 37.469-14.448 72.073-24.551 113.004-29.914 47.428-6.215 96.258-11.126 139.254-30.274 24.428-10.88 45.92-28.443 53.162-50.752 7.51-23.138-3.25-40.434-32.088-36.867-45.444 5.62-93.808 1.025-135.962-14.46-34.92-12.826-64.352-43.267-84.12-69.62-19.49-25.98-24.786-55.75-42.335-82.701-20.103-30.875-45.303-50.283-84.043-65.365-19.538-7.605-39.743-12.026-60.896-15.085-16.501-2.388-42.159-2.115-56.369-9.1-11.484-5.648-19.369-15.29-31.23-20.854-13.471-6.321-29.09-10.33-43.49-14.94-37.03-11.853-75.258-22.798-106.947-42.708-12.153-7.636-25.203-19.084-41.064-18.184-15.382.872-31.934 12.958-41.906 21.73-11.776 10.356-21.72 22.225-34.817 31.41-21.718 15.233-50.291 21.82-78.358 25.265-28.065 3.445-56.665 4.186-84.252 9.71-29.554 5.919-55.723 20.83-66.016 42.413z" transform="translate(-194 -35)"/>
                            <g transform="translate(-194 -35) translate(490.974 1.591)">
                                <mask id="6r33jc2zrK" fill="#fff">
                                    <use xlink:href="#wiiokwdgqJ"/>
                                </mask>
                                <path stroke="#484C6C" stroke-linecap="round" stroke-linejoin="round" stroke-width=".709" d="M1974.074-14.154c4.28 46.383 10.006 93.523 3.998 139.911-3.848 29.721-11.897 59.623-27.027 86.842-7.703 13.86-17.323 27.103-29.575 38.515-9.953 9.271-21.442 24.427-34.237 30.474-11.405 5.389-30.484 3.436-43.575 4.785-15.915 1.64-32.184.115-47.27-4.412-32-9.6-66.275-21.514-100.829-14.826-24.582 4.758-45.312 19.086-60.012 36.18-13.388 15.57-20.5 32.898-29.814 50.151-8.374 15.514-9.017 30.831-11.215 47.862-.065.504-.13 1.007-.197 1.51-2.654 20.044-8.075 39.884-16.502 58.798-7.793 17.494-23.873 30.303-27.094 49.309-.76 4.48-1.02 9.215-3.832 13.09-5.069 6.978-15.596 8.495-23.51 12.271-8.372 3.996-15.831 9.524-23.334 14.525-19.224 12.813-39.751 24.859-63.168 31.727-35.96 10.548-76.044 7.542-112.302-2.266-36.341-9.83-67.304-31.403-102.892-40.75-31.962-8.396-68.776-9.558-102.09-9.597-15.741-.019-32.897 1.315-44.375 10.292-16.417 12.84-13.898 34.503-15.987 53.182-3.25 29.042-21.703 56.505-48.968 74.669-29.531 19.674-59.03 25.278-97.147 21.1-59.732-6.55-100.284-32.6-131.705-74.297-15.833-21.01-20.16-43.355-31.296-65.194-20.887-40.96-65.662-76.69-115.455-92.138-24.286-7.536-47.886-11.648-71.784-20.018-28.837-10.101-57.939-19.707-87.13-29.069-36.109-11.58-77.95-23.323-113.895-40.237-14.825-6.976-28.646-14.832-40.648-23.918-23.628-17.886-41.084-44.478-39.984-71.613 1.086-26.757 32.793-49.084 51.923-68.918 34.064-35.32 46.29-72.908 20.88-114.77-36.543-60.194-112.81-67.843-183.582-82.249-30.19-6.145-61.131-18.242-85.749-34.175-21.292-13.78-36.516-33.133-50.15-52.21-29.326-41.035-42.4-92.227-29.284-139.14 24.155-86.39 122.922-151.112 221.579-174.061 32.536-7.57 56.115-4.984 81.544 14.705 12.628 9.78 23.587 21.09 37.264 29.835 37.147 23.753 80.616 33.678 127.067 26.878 39.4-5.767 75.734-21.387 109.657-39.052 34.674-18.057 70.3-34.793 105.926-51.499 24.963-11.706 64.833-43.04 94.18-26.747 12.837 7.126 20.435 19.178 25.784 31.233 15.854 35.73 8.213 80.572 7.943 118.325-.3 42.026-8.475 85.474-6.258 127.262 1.461 27.564 23.7 48.16 58.073 45.226 20.84-1.818 38.272-13.3 56.053-22.536 36.277-18.843 83.46-42.27 127.197-42.76 33.953-.378 72.418 11.895 91.02 36.109 21.082 27.439 36.987 55.059 63.545 79.728 45.42 42.189 103.835 75.177 168.32 93.467 52.022 14.756 128.7 12.501 162.01-29.719 31.82-40.333.293-87.404 23.605-130.515 12.238-22.63 35.384-39.715 58.576-55.291 27.689-18.597 56.812-36.09 88.562-49.584 27.88-11.848 68.23-26.628 100.428-22.084 120.337 16.984 158.851 157.83 166.268 240.517.154 1.72.311 3.444.47 5.167z" mask="url(#6r33jc2zrK)"/>
                            </g>
                            <g transform="translate(-194 -35) translate(1.59)">
                                <mask id="1r46hnn0sM" fill="#fff">
                                    <use xlink:href="#2wshbuavuL"/>
                                </mask>
                                <path stroke="#484C6C" stroke-linecap="round" stroke-linejoin="round" stroke-width=".709" d="M629.814 362.928c51.345-36.312 55.647-109.972 46.8-161.99-9.484-55.775-41.782-107.875-91.434-146.05-39.06-30.03-83.438-56.634-111.51-94.282-20.201-27.096-36.414-59.981-62.5-83.49-35.022-31.562-75.275-22.472-105.44 7.854-13.272 13.34-27.159 28.087-47.222 32.536-24.996 5.543-50.223-6.763-71.584-18.946-21.361-12.183-45.4-25.41-70.906-21.843-20.56 2.874-36.533 16.049-51.043 28.559C42.737-75.553 19.969-55.711 8.08-30.927-8.69 4.031 5.12 47.378 16.984 82.315c13.806 40.66 35.58 79.447 64.452 114.158 19.611 23.577 42.469 45.24 67.898 64.54 29.364 22.287 62.158 41.422 97.346 56.715 46.451 20.188 96.937 42.38 148.5 51.714 74.394 13.467 169.25 39.726 234.634-6.514z" mask="url(#1r46hnn0sM)"/>
                            </g>
                            <path stroke="#484C6C" stroke-linecap="round" stroke-linejoin="round" stroke-width="2" d="M144.583 710c4.612 18.539 8.248 37.04 12.214 55.72 5.24 24.681 28.571 15.443 52.058 12.731 26.886-3.104 53.569 6.765 76.242 19.224 22.673 12.46 43.227 27.782 67.578 37.794 24.35 10.012 54.486 14.008 78.164 2.929 30.53-14.287 39.556-48.457 33.496-77.241-5.234-24.86-19.666-46.834-28.68-70.66-10.772-28.472-27.659-46.463-46.39-71.115-14.682-19.32-32.866-44.256-38.605-66.865-4.987-19.644-8.418-34.484-35.796-41.341-20.388-5.106-42.3-1.957-63.12 1.734-20.822 3.691-42.204 7.91-63.166 4.825-23.63-3.478-44.908-16.704-55.68-34.608-10.773-17.904-10.779-40.056-.017-57.965 9.951-16.559 28.349-29.483 34.306-47.33 6.409-19.202-3.572-40.225-20.028-54.666-15.35-13.47-35.653-18.656-52.66-29.755-13.17-8.595-24.69-23.69-43.777-22.832-16.293.736-25.092 16.315-27.778 29.754-7.878 39.447 6.192 78.422 20.925 115.513 14.398 36.243 26.127 73.396 40.164 110.13 20.886 54.663 39.446 109.943 55.634 165.705 1.775 6.116 3.399 12.22 4.916 18.32z" transform="translate(-194 -35)"/>
                            <path stroke="#484C6C" stroke-linecap="round" stroke-linejoin="round" stroke-width=".709" d="M341.866 794.708c3.643 2.656 7.42 5.16 11.573 7.234 9.045 4.52 20.614 6.754 30.184 3.054 8.732-3.377 13.992-10.882 17.654-18.284 11.847-23.95 10.012-50.895 6.541-75.934-3.879-27.972-29.254-49.69-46.307-72.761-17.447-23.605-35.318-46.994-53.605-70.155-9.544-12.087-24.636-25.794-41.065-21.03-29.703 8.611-13.397 51.036-52.144 52.045-12.42.323-25.18-2.848-37.082.12-34.803 8.681-27.226 45.965-21.768 68.383 6.832 28.064 8.37 73.497 45.613 84.566 18.14 5.391 38.014 4.322 57.092 6.548 25.95 3.029 50.78 12.398 70.599 26.641 4.317 3.103 8.423 6.443 12.715 9.573z" transform="translate(-194 -35)"/>
                            <g transform="translate(-194 -35) translate(326.12 697.048)">
                                <mask id="4ok91l4zoO" fill="#fff">
                                    <use xlink:href="#fbafq5zpbN"/>
                                </mask>
                                <path stroke="#484C6C" stroke-dasharray="8 3" stroke-linecap="round" stroke-linejoin="round" stroke-width=".709" d="M586.117 241.424c-.07-3.945-.818-7.795-2.41-11.482-5.612-13.009-24.93-18.814-41.226-16.407-20.355 3.008-54.323 18.042-68.513 30.74-11.468 10.263-21.525 22.014-35.752 29.487-34.093 17.904-82.606 3.722-105.596-23.905-22.99-27.628-24.955-64.12-17.558-97.2 7.263-32.487 21.054-60.078 16.24-93.848-2.271-15.921-8.652-31.84-21.257-43.927C298.587 3.896 278.942-3.47 263.642 3.52c-11.547 5.276-16.813 17.24-16.13 28.225 1.214 19.506 14.501 38.666 18.824 58.018 4.211 18.86 4.247 38.43-1.344 57.105-22.358 74.65-129 76.07-194.527 107.239-40.966 19.487-72.376 53.55-69.382 93.716 3.55 47.622 30.709 91.669 56.703 133.162 14.178 22.632 24.176 36.076 56.53 32.536 34.365-3.76 48.37-20.288 72.355-36.94 27.96-19.411 73.105-30.115 106.423-41.517 56.68-19.396 114.35-37.677 166.39-64.665 33.426-17.337 64.51-38.502 89.2-64.227 14.792-15.412 37.808-41.68 37.433-64.747z" mask="url(#4ok91l4zoO)"/>
                            </g>
                            <path stroke="#484C6C" stroke-linecap="round" stroke-linejoin="round" stroke-width=".709" d="M1210.4 622.838c-10.13-17.654-14.701-33.84-19.167-52.548-4.5-18.863-22.454-35.409-38.652-48.572-27.965-22.726-80.435-42.362-112.713-14.206-6.124 5.342-10.666 11.831-16.796 17.17-6.13 5.337-14.663 9.605-23.436 8.558-11.473-1.37-18.874-11.27-20.802-20.8-1.927-9.529-.037-19.329-1.251-28.94-5.171-40.93-56.095-52.682-96.403-61.535-49.54-10.88-103.63-12.319-150.837 4.277-35.131 12.35-71.37 30.235-109.918 33.43-16.282 1.348-33.858 2.443-46.365 11.24-14.594 10.264-17.69 29.17-10.034 43.754 18.067 34.416 60.468 27.631 94.065 40.964 34.56 13.716 69.62 34.693 94.195 59.128 33.311 33.123 60.75 76.819 92.39 102.712 39.453 32.287 94.745 31.76 145.552 23.42 49.586-8.14 95.85-26.402 140.61 5.094 15.587 10.968 27.897 26.331 47.236 31.728 31.457 8.777 63.148-12.765 96.186-15.238 16.063-1.203 32.042 2.184 48.073 3.655 16.032 1.472 33.55.67 46.278-7.59 12.728-8.26 17.181-26.087 5.263-35.148-4.064-3.091-9.347-4.773-14.495-6.388-36.255-11.371-88.652-18.597-113.035-45.214-13.953-15.231-26.022-31.662-35.943-48.95z" transform="translate(-194 -35)"/>
                            <path stroke="#484C6C" stroke-linecap="round" stroke-linejoin="round" stroke-width=".709" d="M759.87 578.092c-16.426-17.144-36.642-34.38-62.305-40.837-22.483-5.657-52.61-10.798-62.405-31.612-10.323-21.936 21.514-32.572 40.448-39.01 20.973-7.13 40.632-16.087 61.33-23.653 42.921-15.692 92.961-11.375 137.38 1.087 20.156 5.657 40.089 13.14 55.518 25.35 15.429 12.212 25.842 29.842 23.445 47.471-2.353 17.31-16.21 31.888-30.54 44.56-14.33 12.67-30.103 24.997-38.03 41.113-9.903 20.134-.228 45.236 20.259 58.332 23.795 15.209 57.148 8.294 80.283-4.162 27.267-14.682 47.899-37.732 57.027-63.713 5.763-16.4 7.104-33.859 14.829-49.687 7.723-15.828 24.564-30.502 45.045-30.165 25.707.424 42.054 22.804 50.917 42.939 10.04 22.807 17.045 46.544 20.841 70.634 3.181 20.183 3.33 42.726-12.206 58.426-13.494 13.635-35.905 18.8-57.08 19.575-21.174.776-42.39-2.06-63.542-.938-34.261 1.817-67.413 13.956-101.676 12.163-42.073-2.201-78.794-25.229-105.932-52.139-27.138-26.911-47.288-58.262-73.606-85.734z" transform="translate(-194 -35)"/>
                            <g transform="translate(-194 -35) translate(1290.16 806.857)">
                                <mask id="8sozuq4llQ" fill="#fff">
                                    <use xlink:href="#powsrjepbP"/>
                                </mask>
                                <path stroke="#484C6C" stroke-linecap="round" stroke-linejoin="round" stroke-width=".709" d="M426.963 38.607c-3.96-2.25-7.84-4.591-11.661-6.95-16.722-10.32-33.318-21.358-52.9-27.253C342.821-1.49 319.151-1.31 303.01 9.63c-14.205 9.627-19.948 25.653-20.6 40.88-.654 15.225 2.984 30.34 3.912 45.556 1.772 29.04-10.338 62.382-42.477 73.865-24.316 8.69-52.79 2.125-75.918-8.573-43.655-20.193-83.04-53.149-136.843-47.185-11.877 1.317-25.048 5.444-29.115 14.813-3.002 6.914.071 14.816 5.476 20.634s12.866 10.022 19.985 14.383c26.428 16.188 49.763 35.857 68.867 58.049 5.503 6.393 10.874 13.173 18.798 17.465 20.835 11.282 55.335.54 78 .644 22.514.105 46.581 11.725 68.772 4.93 10.774-3.298 18.793-10.748 26.468-17.847 25.073-23.192 51.668-45.643 77.786-68.005 24.3-20.805 52.766-39.97 87.66-46.2 44.982-8.029 92.411 6.808 137.464-.932 9.744-1.674 19.525-4.54 26.828-10.159 7.302-5.619 11.634-14.46 8.78-22.383-3.465-9.62-15.712-14.91-27.148-18.143-21.162-5.983-43.69-8.611-66.016-7.704-21.166.86-42.524 4.846-63.337 1.528-15.78-2.515-30.023-9.047-43.388-16.638z" mask="url(#8sozuq4llQ)"/>
                            </g>
                            <g transform="translate(-194 -35) translate(39.77 1.591)">
                                <mask id="t5m0ssdopS" fill="#fff">
                                    <use xlink:href="#7582qko16R"/>
                                </mask>
                                <path stroke="#484C6C" stroke-linecap="round" stroke-linejoin="round" stroke-width="2" d="M32.614 135.75c11.264 23.622 25.507 46.23 43.06 67.083 38.447 45.675 93.914 82.554 157.858 100.072 53.021 14.525 109.469 21.9 163.627 6.55 93.579-26.52 187.648-117.238 133.944-201.66-32.94-51.778-85.099-94.93-147.483-122.016-12.688-5.51-28.152-10.358-40.785-4.764-9.58 4.242-14.545 13.503-15.861 22.474-1.317 8.97.311 18.041.379 27.078.21 28.586-16.683 57.337-45.285 73.136-28.603 15.798-68.346 17.253-97.357 1.98-34.227-18.017-48.153-53.642-54.234-86.983-4.615-25.302-9.009-54.878-35.45-67.911-24.778-12.213-59.02-1.994-75.767 17.51C-10.961 3.496 1.146 42.783 12.572 82.638c5.175 18.053 11.813 35.854 20.042 53.113z" mask="url(#t5m0ssdopS)"/>
                            </g>
                            <g transform="translate(-194 -35) translate(1050.945 541.087)">
                                <mask id="xpi16m29aU" fill="#fff">
                                    <use xlink:href="#zv80thlcqT"/>
                                </mask>
                                <path stroke="#484C6C" stroke-linecap="round" stroke-linejoin="round" stroke-width=".709" d="M267.334 602.583c7.322 4.21 17.41 3.451 25.512.386 8.101-3.066 14.843-8.1 22.065-12.427 26.075-15.624 59.782-22.122 91.45-17.628 18.096 2.568 35.393 8.707 50.328 17.59 11.198 6.662 21.067 14.866 28.947 24.265 9.253 11.036 16.814 24.338 31.514 29.93 43.434 16.526 75.12-36.274 86.858-63.007 15.35-34.955 17.788-76.688 50.3-104.768 26.405-22.808 67.876-29.934 105.559-25.583 58.817 6.792 111.177 35.284 170.301 44.102 44.42 6.626 90.666 11.656 135.915 7.05 21.429-2.18 43.246-6.429 60.74-16.966 41.58-25.048 36.215-65.783-4.212-87.056-34.874-18.35-77.952-22.939-112.14-42.219-52.735-29.741-79.733-82.673-92.435-134.648-8.283-33.89-10.58-72.166 14.156-99.946 13.414-15.063 33.174-25.104 51.05-36.51 17.877-11.404 35.09-25.73 39.415-44.133 6.394-27.197-21.294-47.153-51.855-38.852-28.644 7.782-47.459 27.958-71.603 41.362-24.988 13.871-53.054 18.223-82.751 14.78-33.48-3.88-66.492-14.252-95.73-27.616-28.017-12.805-61.971-9.15-91.742-1.1-45.814 12.389-107.294 38.076-132.47 74.163-8.695 12.465-16.393 31.306-16.184 45.853.363 25.493.15 45.157-17.881 67.378-58.79 72.451-192.434 54.047-278.857 87.597-35.429 13.754-69.053 35.665-108.126 34.77-12.604-.29-25.094-3.02-37.68-2.327-52.843 2.915-37.53 67.523-28.302 94.534 16.298 47.705 67.782 84.197 128.65 84.852 17.91.192 35.67-2.61 53.562-3.304 17.892-.694 36.707.963 51.691 9.134 17.837 9.725 21.306 23.345 18.322 39.333-2.415 12.95-10.52 31.723 5.633 41.01z" mask="url(#xpi16m29aU)"/>
                            </g>
                            <g transform="translate(-194 -35) translate(279.985 509.259)">
                                <mask id="t3yghpds4W" fill="#fff">
                                    <use xlink:href="#fr1xyczhmV"/>
                                </mask>
                                <path stroke="#484C6C" stroke-linecap="round" stroke-linejoin="round" stroke-width=".709" d="M458.928 212.186c-.356-21.717 3.988-43.961-6.042-63.78-30.63-60.515-133.956-53.595-193.536-74.61-26.916-9.495-55.077-30.779-75.226-48.407C168.964 12.123 153.35-9.155 127.84 6.37c-14.44 8.788-19.21 25.576-16.149 40.282 8.592 41.28 45.18 72.283 72.764 105.418 13.68 16.431 22.932 34.136 36.178 50.93 16.165 20.498 30.823 42.169 38.482 66.032 10.873 33.874 5.15 73.714-25.066 98.064-41.533 33.472-105.746 27.282-154.743 48.096C22.225 439.44-3.412 488.692.53 540.966 3.513 580.559 23.761 616 36.158 653.364 49.807 694.5 73.58 734.238 90.83 774.454c6.047 14.095 13.203 29.335 28.752 36.782 19.05 9.124 44.193 2.67 60.562-9.557s26.409-29.1 37.912-44.725c29.434-39.978 70.718-73.817 119.125-97.642 64.01-31.504 135.219-50.174 204.093-72.58 30.788-10.015 63.159-20.032 92.857-31.63 30.97-12.094 60.393-41.546 81.16-63.567 27.372-29.023 46.288-65.296 47.72-102.548 1.142-29.692-3.507-69.015-40.745-82.218-30.886-10.952-58.54-1.959-89.009 3.28-31.182 5.362-64.27 4.666-94.22-4.893-39.561-12.626-72.382-42.037-78.698-77.02-.949-5.255-1.323-10.586-1.412-15.95z" mask="url(#t3yghpds4W)"/>
                            </g>
                            <g transform="translate(-194 -35) translate(843.138 1.591)">
                                <mask id="a4viq5vcxY" fill="#fff">
                                    <use xlink:href="#e4tnqezbzX"/>
                                </mask>
                                <path stroke="#484C6C" stroke-linecap="round" stroke-linejoin="round" stroke-width="2" d="M86.895-3.424C68.26 7.926 48.027 11.178 25.713 13.416c-11.756 1.179-34.043.668-22.2 13.192 4.22 4.464 14.924 4.85 20.535 8.216 7.369 4.422 11.834 10.838 15.888 17.45C48.25 65.832 51.164 81.83 64.006 93.29c20.603 18.38 37.442 7.777 43.055-14.924 5.644-22.831 14.092-45.171 25.116-66.577 4.127-8.011 32.99-42.657 28.771-47.445C148.531-49.755 96.531-9.293 86.895-3.424z" mask="url(#a4viq5vcxY)"/>
                            </g>
                            <path stroke="#484C6C" stroke-dasharray="8 3 4 3" stroke-linecap="round" stroke-linejoin="round" stroke-width=".709" d="M924.709 155.45c5.76 26.72-2.894 54.892-23.731 75.923-9.325 9.413-20.456 17.538-29.213 27.323-18.882 21.101-18.536 46.185 13.272 52.669 29.614 6.037 47.455 20.65 68.15 37.375 31.442 25.41 72.746 45.662 115.599 55.665 16.568 3.867 53.507 12.88 69.34 3.97 13.872-7.807 3.673-35.58 3.4-48.52-.124-5.932-.91-12.887-6.96-15.991-5.794-2.971-13.588-.628-18.578 3.231-4.989 3.86-8.293 9.014-13.044 13.077-16.032 13.713-45.416 10.737-61.904-2.593-25.246-20.409-17.266-47.246-23.337-72.75-6.767-28.434-18.405-55.919-31.804-82.601-8.559-17.043-22.396-34.65-27.936-52.479-3.15-10.14-2.534-29.074-22.872-25.07-16.732 3.294-12.65 20.668-10.382 30.77z" transform="translate(-194 -35)"/>
                            <path stroke="#484C6C" stroke-linecap="round" stroke-linejoin="round" stroke-width=".709" d="M903.085 258.352c-.738.686-1.437 1.402-2.084 2.154-3.753 4.363-5.26 10.549-1.94 15.153 4.114 5.704 13.46 6.717 21.349 6.003 7.889-.714 16.122-2.494 23.541-.13 8.663 2.759 13.667 10.452 16.072 17.975 2.404 7.521 2.993 15.477 6.532 22.675 3.539 7.197 11.243 13.81 20.504 13.606 8.381-.184 15.425-6.059 18.132-12.73 2.708-6.672 1.913-13.967.54-20.92-5.468-27.697-19.45-53.617-33.294-79.165-2.465-4.548-5.291-9.424-10.591-11.685-9.986-4.262-21.607 3.378-26.854 11.695-4.552 7.216-7.274 14.983-13.481 21.405-5.117 5.294-12.886 8.81-18.426 13.964z" transform="translate(-194 -35)"/>
                            <path stroke="#484C6C" stroke-dasharray="8 3" stroke-linecap="round" stroke-linejoin="round" stroke-width=".709" d="M1109.395 100.36c-46.629-16.33-19.143-46.176 20.63-44.6 12.06.478 24.647 5.52 29.402 14.711 5.195 10.041-.913 22.558-12.035 28.429-11.122 5.871-25.85 5.715-37.997 1.46zM773.94 127.803c5.054 18.95 2.897 39.736-2.199 61.88-2.376 10.327-2.542 24.25 9.353 27.707 9.844 2.861 19.563-4.44 25.462-11.617 17.706-21.54 32.43-60.454 29.943-86.985-2.579-27.513-39.324-55.207-65.162-69.04-20.568-11.01-44.67-17.336-66.758-25.46-18.93-6.965-34.77 5.172-18.597 21.343 7.568 7.566 19.789 12.207 29.837 17.149 29.1 14.314 50.69 37.168 58.12 65.023z" transform="translate(-194 -35)"/>
                            <g transform="translate(-194 -35) translate(23.862 1.591)">
                                <mask id="vd1eux1craa" fill="#fff">
                                    <use xlink:href="#3xlw8hvwhZ"/>
                                </mask>
                                <path stroke="#484C6C" stroke-linecap="round" stroke-linejoin="round" stroke-width=".709" d="M136.283-79.831c-16.807-4.967-38.407-5.132-52.806-2.842-20.327 3.231-36.5 15.745-50.635 28.317C-10.648-15.673-3.047 36.707 11.378 84.64c18.518 61.53 58.926 118.135 115.29 160.897 44.097 33.458 94.265 56.663 151.15 71.063 55.2 13.972 108.392 18.718 165.545 19.832 49.829.972 100.237-17.235 132.169-49.257 54.55-54.704 38.255-125.139-.735-182.53-40.894-60.193-114.686-98.95-160.37-157.232-14.826-18.916-31.92-37.432-61.8-38.655-19.707-.806-39.637 6.94-51.533 20.031-10.397 11.442-14.447 25.89-18.665 39.796-4.219 13.906-9.232 28.304-20.954 38.823-11.723 10.52-32.179 15.715-46.629 7.889-7.792-4.222-12.513-11.314-16.927-18.121-12.836-19.798-25.65-53.912-45.292-69.197-4.333-3.372-9.996-5.933-16.344-7.809z" mask="url(#vd1eux1craa)"/>
                            </g>
                            <path stroke="#484C6C" stroke-dasharray="8 3 4 3" stroke-linecap="round" stroke-linejoin="round" stroke-width=".709" d="M308.391 152.723c-2.42.421-4.856.847-7.301 1.286-36.702 6.595-54.888 26.062-30.992 54.905 10.671 12.881 27.478 21.547 45.206 26.759 38.933 11.444 87.098 22.136 128.225 15.13 22.59-3.848 44.44-12.504 60.08-26.604 19.75-17.804 28.047-43.158 25.769-67.312-2.278-24.154-14.372-47.144-30.905-67.09C484.73 73.22 457.449 49.204 429.78 59.98c-11.65 4.537-19.417 14.018-24.676 23.786-5.258 9.768-8.601 20.23-14.573 29.71-17.946 28.493-48.672 33.428-82.14 39.248z" transform="translate(-194 -35)"/>
                            <path stroke="#484C6C" stroke-linecap="round" stroke-linejoin="round" stroke-width="2" d="M879.483 473.767c-32.924-7.367-66.65-13.381-100.8-14.627-25.777-.94-66.023-3.857-85.796 12.677-7.565 6.325-11.614 16.49-6.648 24.406 7.002 11.161 22.09 9.751 34.478 12.305 14.896 3.072 28.986 9.37 40.135 18.163 16.707 13.176 27.475 31.83 47.436 41.357 25.958 12.389 59.33 5.291 85.168-7.27 12.002-5.834 23.456-12.953 31.26-22.534 7.804-9.579 11.545-21.957 7.366-32.998-6.787-17.928-30.81-26.604-52.599-31.479z" transform="translate(-194 -35)"/>
                            <path stroke="#484C6C" stroke-linecap="round" stroke-linejoin="round" stroke-width=".709" d="M1105.624 78.776L1139.031 78.776M1122.328 65.249L1122.328 92.303" transform="translate(-194 -35)"/>
                            <path stroke="#484C6C" stroke-dasharray="8 3" stroke-linecap="round" stroke-linejoin="round" stroke-width=".709" d="M1029.64 657.06c-10.448 5.184-24.148 11.43-22.514 21.488.967 5.956 7.713 10.334 14.749 11.596 7.034 1.263 14.332.068 21.37-1.184 18.646-3.322 37.185-7.065 55.589-11.226 15.424-3.488 31.908-7.925 41.244-18.757 8.694-10.086 9.175-23.482 8.065-35.875-2.093-23.396-20.22-110.468-63.014-63.6-14.788 16.195-8.692 35.25-15.047 53.617-6.277 18.141-20.985 34.286-40.442 43.94z" transform="translate(-194 -35)"/>
                            <path stroke="#484C6C" stroke-linecap="round" stroke-linejoin="round" stroke-width="2" d="M1122.634 591.225c-4.265-7.866-12.186-13.45-23.45-11.581-21.426 3.552-5.701 23.557-2.437 34.656 1.436 4.882 3.585 10.469 9.194 12.228 6.266 1.966 13.008-2.221 16.466-7.031 5.2-7.233 5.117-19.253.227-28.272z" transform="translate(-194 -35)"/>
                            <path stroke="#484C6C" stroke-dasharray="8 3" stroke-linecap="round" stroke-linejoin="round" stroke-width=".709" d="M871.808 554.5c23.854-5.95 45.624-26.937 25.358-46.186-14.61-13.876-47.194-15.195-67.542-11.814-21.092 3.504-32.677 16.678-25.923 34.986 8.918 24.172 42.478 29.408 68.107 23.014z" transform="translate(-194 -35)"/>
                            <path stroke="#484C6C" stroke-linecap="round" stroke-linejoin="round" stroke-width=".709" d="M841.547 525.969L874.954 525.969M858.25 512.442L858.25 539.496M1358.565 522.786L1391.972 522.786M1375.269 509.259L1375.269 536.313M424.75 175.853L458.158 175.853M441.454 162.326L441.454 189.381M262.486 697.843L295.894 697.843M279.19 684.316L279.19 711.371" transform="translate(-194 -35)"/>
                            <g transform="translate(-194 -35) translate(305.439 609.519)">
                                <mask id="uuwy47bwsac" fill="#fff">
                                    <use xlink:href="#aa1674kkeab"/>
                                </mask>
                                <path stroke="#484C6C" stroke-linecap="round" stroke-linejoin="round" stroke-width=".709" d="M9.646 453.344c13.743 43.61 37.506 84.346 62.391 124.114 14.444 23.084 33.206 55.278 71.758 44.736 20.356-5.567 35.288-19.795 50.99-32.035 38.29-29.848 90.276-50.454 137.339-68.782 84.557-32.93 180.423-46.259 255.304-94.9 41.854-27.189 75.209-66.796 84.55-110.852 3.074-14.494 7.718-41.846-1.006-55.292-11.153-17.188-45.206-16.824-64.499-14.098-37.954 5.363-73.32 12.81-110.754 21.186-23.31 5.214-49.065 7.783-70.809-1-24.655-9.96-38.888-32.682-43.871-55.307-7.056-32.043 3.488-61.409.944-93.305-1.535-19.251-8.294-38.609-22.395-53.824-14.874-16.05-36.965-26.5-60.033-32.632-19.509-5.185-41.583-4.125-60.513-9.456-14.138-3.983-21.906-15.37-36.168-19.962-8.353-2.69-19.174-1.833-24.42 4.262-6.452 7.494-1.48 17.896 3.612 26.098 24.791 39.928 53.645 79.361 72.324 121.59 22.834 51.625 5.429 106.768-52.472 136.027-43.138 21.8-95.944 23.789-138.682 44.46C38.353 346.408 21.674 364.3 8.66 385.384c-13.474 21.829-6.966 41.929.166 65.315.269.883.543 1.765.82 2.645z" mask="url(#uuwy47bwsac)"/>
                            </g>
                            <g transform="translate(-194 -35) translate(1253.57 763.888)">
                                <mask id="3np1btrmuae" fill="#fff">
                                    <use xlink:href="#vrdmzzp0qad"/>
                                </mask>
                                <path stroke="#484C6C" stroke-linecap="round" stroke-linejoin="round" stroke-width="2" d="M672.463 207.215c21.155-.327 59.711-7.995 63.22-28.402 2.583-15.03-7.313-33.192-14.993-46.39-14.056-24.157-52.552-47.844-81.665-57.935-28.096-9.739-59.447-9.6-89.786-11.58-30.6-2-61.6-7.939-86.75-23.352-25.67-15.73-44.834-36.825-79.364-38.823-61.39-3.552-115.161 57.1-117.57 104.242-.808 15.829 1.05 34.83-14.373 44.105-14.12 8.49-33.702 2.997-49.723-2.69-27.318-9.7-55.22-19.33-84.757-21.904-38.393-3.345-146.75 25.7-108.299 74.244 9.09 11.478 26.293 15.904 41.393 21.466 27.17 10.008 51.05 26.132 68.424 46.2 11.237 12.983 21.012 28.446 38.776 34.553 21.774 7.485 46.116-2.104 69.637-3.186 32.245-1.484 66.519 13.01 95.537 1.21 18.56-7.548 29.095-23.794 40.722-38.008 25.846-31.6 59.14-49.763 97.062-69.613 41.575-21.762 77.605-17.938 123.404-3.393 28.866 9.167 58.217 19.735 89.105 19.256z" mask="url(#3np1btrmuae)"/>
                            </g>
                            <g transform="translate(-194 -35) translate(1194.12 689.09)">
                                <mask id="dy2p50vt1ag" fill="#fff">
                                    <use xlink:href="#b4fxh9a44af"/>
                                </mask>
                                <path stroke="#484C6C" stroke-linecap="round" stroke-linejoin="round" stroke-width=".709" d="M581.047 17.12c-14.192-6.918-29.493-12.037-45.663-14.558C499.923-2.97 462.232 4.664 432.37 21.59 417 30.3 404.955 41.877 396.078 55.383c-8.726 13.277-19.165 21.787-32.026 32.79-31.385 26.853-52.19 56.956-75.315 89.132-6.67 9.28-15.229 19.595-28.13 20.511-11.082.787-20.68-5.765-30.604-9.964-29.77-12.597-81.913-4.186-113.598 1.298-29.597 5.123-57.874 17.439-82.266 32.582-13.577 8.428-25.255 19.65-30.287 33.148-23.029 61.762 66.094 42.488 103.94 55.08 20.016 6.66 39.99 21.005 53.576 34.614 15.35 15.378 23.527 37.467 45.413 47.662 27.681 12.895 62.43-1.123 93.695 3.185 22.315 3.075 43.694 15.556 65.689 11.151 19.294-3.864 31.408-19.263 43.095-32.67 19.41-22.267 42.792-42.103 69.078-58.714 18.04-11.4 37.775-29.886 58.443-37.524 62.502-23.101 140.379 17.675 203.84 19.713 23.176.744 48.73-3.31 63.382-18.346 18.11-18.588 12.579-46.528-.275-67.96-20.467-34.126-58.278-65.564-96.895-85.694-36.45-19-50.876-50.74-79.941-76.974-13.405-12.1-28.827-22.986-45.845-31.282z" mask="url(#dy2p50vt1ag)"/>
                            </g>
                            <path stroke="#484C6C" stroke-linecap="round" stroke-linejoin="round" stroke-width=".709" d="M349.71 508c15.663 16.156 16.578 41.409 26.265 61.491 10.915 22.63 24.504 44.285 38.791 65.542 28.842 42.908 61.21 84.45 83.542 130.153 8.087 16.551 14.886 34.417 11.42 52.051-6.981 35.535-47.41 70.453-91.354 72.3-31.45 1.32-53.777-15.177-74.509-31.975-23.668-19.179-48.849-37.06-75.332-53.486-19.389-12.026-37.18-17.313-60.852-11.776-22.1 5.17-40.254 7.129-54.615-11.948-8.218-10.919-10.82-24.028-13.553-36.715C126.95 685.3 108.125 628.04 86.71 571.565c-20.953-55.256-46.428-108.453-59.166-165.303L5.22 306.632c-2.783-12.425-5.555-25.32-1.824-37.572 3.73-12.25 15.91-23.683 31.073-23.98 10.543-.196 20.11 4.804 28.786 9.798 56.688 32.628 161.565 87.848 122.132 157.601-9.851 17.427-28.2 33.49-25.571 52.628 2.349 17.103 21.854 29.708 42.063 33.279 20.209 3.57 41.128.138 61.446-2.967 20.319-3.104 41.549-5.848 61.367-.991 11.226 2.75 19.154 7.524 25.017 13.571z" transform="translate(-194 -35)"/>
                            <path stroke="#484C6C" stroke-dasharray="8 3" stroke-linecap="round" stroke-linejoin="round" stroke-width=".709" d="M384.7 486.345c6.926 1.146 14.691.865 24.61-1.897 22.923-6.382 48.612-17.422 56.849-38.15 13.297-33.461-63.078-24.354-83.92-30.501-45.4-13.391-88.62-33.421-127.284-57.343-7.133-4.413-14.396-9.092-22.999-10.886-8.604-1.793-19.03.153-23.538 6.552-5.212 7.396-.68 16.64 1.6 25.015 3.6 13.228.951 27.577-7.251 39.273-10.591 15.102-30.82 29.218-25.225 46.096 4.39 13.24 23.608 19.288 39.889 17.69 16.282-1.597 31.011-8.574 46.593-12.846 25.421-6.97 53.57-6.207 78.674 1.363 17.64 5.32 28.138 13.338 42.002 15.634z" transform="translate(-194 -35)"/>
                            <path stroke="#484C6C" stroke-linecap="round" stroke-linejoin="round" stroke-width=".709" d="M227.952 454.922c4.962-1.63 9.21-4.433 13.649-6.897 15.022-8.34 32.952-12.996 51.002-13.24 8.432-.114 19.273-.55 21.94-7.22 5.252-13.167-38.01-35.255-50.435-35.999-11.73-.702-23.288 3.673-32.157 10.107-8.87 6.434-15.39 14.793-21.258 23.288-8.397 12.16-10.213 38.98 17.259 29.961zM292.512 142.903c-30.374 3.52-58.331-3.174-84.016-16.573-17.357-9.052-50.652-41.357-73.607-34.24-9.721 3.014-16.075 11.262-17.979 19.763-1.904 8.501-.032 17.266 2.505 25.651 17.447 57.663 68.235 107.633 133.593 131.445 119.182 43.422 339.955-13.368 294.536-149.93-7.722-23.216-24.744-42.604-45.08-59.32-18.306-15.047-42.176-37.581-66.095-45.82-11.753-4.048-26.41-4.016-36.086 2.863-10.454 7.433-12.194 20.076-14.12 31.418-4.269 25.128-13.583 50.588-33.886 69.495-15.072 14.035-36.901 22.6-59.765 25.248z" transform="translate(-194 -35)"/>
                            <path stroke="#484C6C" stroke-linecap="round" stroke-linejoin="round" stroke-width="2" d="M387.39 194.535c4.197 11.221 15.593 20.12 28.918 24.065 13.325 3.947 28.3 3.213 41.58-.836 4.006-1.222 7.888-2.756 11.566-4.573 10.618-5.248 19.534-12.853 24.831-22.093 7.131-12.44 7.18-27.797-1.118-39.728-32.994-47.424-124.1-5.833-105.777 43.165zM219.97 730.378c11.952 6.61 27.65 10.07 42.17 11.663 24.475 2.687 51.565 3.592 69.547 17.599 5.088 3.964 9.147 8.807 14.59 12.432 5.444 3.625 13.022 5.91 19.448 3.643 5.495-1.938 8.732-6.637 11.066-11.189 35.77-69.767-52.483-131.95-132.376-106.035-13.202 4.283-25.72 10.762-34.177 20.184-8.457 9.423-12.354 22.078-7.99 33.247 3.092 7.91 9.527 13.924 17.722 18.456z" transform="translate(-194 -35)"/>
                            <path stroke="#484C6C" stroke-dasharray="8 3" stroke-linecap="round" stroke-linejoin="round" stroke-width=".709" d="M298.484 722.343c12.004-1.721 25.57-4.314 31.53-13.096 23.464-34.574-61.277-52.952-88.236-39.72-14.474 7.103-25.607 27.277-18.398 40.578 11.8 21.776 53.363 15.356 75.104 12.238z" transform="translate(-194 -35)"/>
                            <g transform="translate(-194 -35) translate(0 1.591)">
                                <mask id="lvbsby2qeai" fill="#fff">
                                    <use xlink:href="#nbn116oj4ah"/>
                                </mask>
                                <path stroke="#484C6C" stroke-linecap="round" stroke-linejoin="round" stroke-width="2" d="M-41.788 1000.41c21.21-23.024 38.586-48.736 53.638-74.798 31.003-53.68 51.351-118.042 60.359-177.29 9.46-62.24-8.26-122.948-31.687-182.105C24.404 525.513.374 487.704-12.652 446.268c-22.978-73.086-48.465-149.85-32.242-225.063 8.858-41.063 18.083-77.317-7.57-116.623-9.805-15.022-23.503-28.569-40.245-38.54-17.042-10.147-32.9-12.062-52.337-16.738-36.95-8.888-69.887-29.438-89.785-56.913-16.966-23.423-24.077-51.35-21.59-78.533 1.793-19.587 7.953-54.615 29.056-66.515 12.388-6.986 28.776-6.644 43.362-3.871 14.586 2.772 28.617 7.693 43.485 9.077 21.416 1.995 43.718-3.871 59.872-15.746 19.102-14.041 26.619-33.157 24.994-53.69-1.51-19.089-1.84-40.608 14.753-55.636 18.487-16.74 51.104-17.29 76.114-8.15 25.012 9.14 44.615 25.877 64.945 41.065 20.33 15.189 43.446 29.691 70.544 32.545 63.538 6.692 117.083-44.916 123.456-93.583 6.957-53.142-39.682-99.976-55.071-149.663-11.308-36.51-10.78-77.349 12.637-109.62 18.594-25.626 51.7-47.705 49.756-77.6-1.633-25.105-38.037-58.462-68.387-62.677-39.446-5.479-89.03 17.084-117.877 37.314-39.045 27.38-59.406 67.463-81.945 104.541-18.22 29.974-40.179 58.372-65.43 84.574-43.959 45.614-106.764 66.494-176.235 71.436-9.738.694-19.503 1.038-29.238 1.045-36.288.026-77.13-2.762-111.806-12.266-36.132-9.904-70.338-34.145-102.653-51.566-11.012-5.937-22.291-11.972-35.032-14.577-26.048-5.325-52.745 4.462-76.994 14.01-23.337 9.187-35.532 20.47-22.295 40.682 11.74 17.926 31.611 31.047 46.525 46.994 22.283 23.827 33.935 54.456 60.802 74.743 23.962 18.095 56.558 25.365 86.027 36.474 51.447 19.394 76.35 59.257 90.49 102.782 28.288 87.08 35.337 182.786 26.203 272.6-3.27 32.166-9.991 66.189-26.09 95.804-17.132 31.513-38.075 58.193-40.933 94.025-2.757 34.562 10.92 66.242 31.204 95.857 14.936 21.806 33.804 42.606 42.728 66.877 8.037 21.861-6.132 48.705-24.012 65.292-51.236 47.534-148.536 40.287-214.307 22.085-99.031-27.41-139.204 21.71-200.905 79.1-45.187 42.03-70.765 101.98-59.915 158.334 5.367 27.88 20.24 54.11 44.147 74.288 35.648 30.089 77.964 29.695 122.17 43.67 46.565 14.72 87.377 41.535 123.113 69.903 35.23 27.967 68.072 58.317 107.304 82.31 27.091 16.566 57.76 30.08 90.788 36.093 53.75 9.785 120.587-11.175 165.792-34.754 28.973-15.112 53.018-34.83 73.49-57.054z" mask="url(#lvbsby2qeai)"/>
                            </g>
                            <g transform="translate(-194 -35) translate(0 1.591)">
                                <mask id="dk0dzlrb4ak" fill="#fff">
                                    <use xlink:href="#rlydhjmshaj"/>
                                </mask>
                                <path stroke="#484C6C" stroke-linecap="round" stroke-linejoin="round" stroke-width=".5" d="M96.115 700.675c-2.078-36.183-9.56-72.284-22.694-107.347-15.124-40.37-35.982-77.164-50.729-117.637-16.546-45.408-33.096-90.955-43.591-137.665-10.75-47.83-7.17-88.2 6.836-135.178 19.678-66.012-25.32-130.716-100.638-155-25.012-8.064-52.608-11.492-74.804-24.05-52.841-29.9-88.898-135.05-8.31-158.261 20.294-5.845 42.347.584 63.77 1.74 28.904 1.561 58.402-7.14 79.719-23.514 1.452-1.114 2.863-2.264 4.235-3.444 18.773-16.174 29.96-38.397 30.469-60.932.277-12.317-1.914-26.19 7.713-35.526 9.648-9.354 27.044-9.597 41.3-6.32 41.581 9.56 70.842 40.69 109.832 56.088 36.685 14.487 81.528 13.623 117.376-2.26 36.007-15.955 67.668-50.745 69.131-85.643 3.362-80.19-76.709-144.124-62.276-225.032 3.902-21.873 13.375-43.017 27.43-61.75 12.744-16.98 29.728-25.605 30.663-46.542 1.488-33.365-21.164-70.035-60.226-81.65-86.37-25.684-157.831 26.299-200.58 84.342-22.29 30.265-39.437 63.088-63.185 92.568-74.264 92.189-204.25 146.151-333.92 105.549-35.111-10.994-67.63-27.071-97.627-45.749-19.929-12.409-56.099-50.919-84.403-44.852-8.532 1.831-14.31 8.195-20.16 13.69-7.95 7.468-17.256 13.698-27.554 18.77-17.949 8.84-45.502 7.922-45.665 30.594-.072 9.914 5.674 19.199 12.25 27.456 14.045 17.637 33.058 31.709 48.376 48.328 29.594 32.107 41.493 82.113 87.903 100.322 31.413 12.326 67.946 13.601 93.562 34.543 28.99 23.7 43.498 57.231 54.516 89.083 22.149 64.04 29.181 135.198 30.873 201.912.88 34.675 1.824 71.541-5.417 106.593-7.726 37.399-27.961 64.094-51.063 96.019-26.86 37.117-13.992 85.637 6.704 122.507 19.798 35.273 55.294 84.581 28.005 123.653-16.085 23.031-48.607 35.116-80.37 37.841-64.539 5.537-142.253-29.967-202.546-.681-16.545 8.037-31.793 18.483-50.129 23.067-9.782 2.446-20.627 3.316-28.525 8.722-8.844 6.056-11.633 16.133-15.074 25.242-12.512 33.108-51.946 41.075-73.192 66.94-24.222 29.484-34.86 66.449-30.47 101.938 5.721 46.264 39.734 107.852 89.638 132.107 19.495 9.476 42.105 13.151 63.75 18.451 48.132 11.785 90.83 36.562 120.096 69.793 38.502 43.717 88.286 79.72 144.956 106.184 26.488 12.369 53.975 25.447 84.315 26.245 1.969.052 3.929.089 5.88.11 66.497.7 133.326-14.51 188.695-45.581 63.42-35.587 90.33-84.15 124.672-138.498 26.124-41.34 44.218-86.173 53.589-132.25 6.376-31.35 8.718-63.271 6.894-95.035z" mask="url(#dk0dzlrb4ak)"/>
                            </g>
                            <g transform="translate(-194 -35) translate(0 1.591)">
                                <mask id="cmnz1c0nwam" fill="#fff">
                                    <use xlink:href="#16szi5cnxal"/>
                                </mask>
                                <path stroke="#484C6C" stroke-linecap="round" stroke-linejoin="round" stroke-width=".5" d="M-113.71-414.005c22.437-6.46 44.142-14.635 64.616-24.763 40.974-20.272 76.602-48.817 100.823-83.146 24.324-34.474 35.136-74.451 59.971-108.879 19.572-27.13 69.892-55.293 103.58-25.365 22.208 19.73 12.62 51.143 5.751 77.592-13.129 50.553-10.642 103.87 7.154 153.42 10.591 29.486 26.58 58.01 30.07 88.653 3.492 30.644-9.239 65.445-42.036 79.558-42.226 18.172-91.714-5.216-132.62-25.378-40.906-20.163-97.802-36.336-131.693-8.558-41.303 33.857-2.119 115.595-69.366 127.593-20.34 3.628-41.369-.495-61.66-4.303-20.417-3.832-44.14-6.762-60.28 4.35-17.76 12.228-28.762 28.898-30.865 48.087-1.817 16.582 2.02 33.204 6.277 49.47 12.729 48.647 28.45 93.8 86.869 116.95 32.038 12.696 70.4 15.676 96.838 35.4 32.562 24.294 33.636 61.39 32.27 94.924-1.5 36.933-14.902 72.59-17.738 109.731-4.189 54.843 12.67 110.777 33.701 162.334 22.144 54.28 58.345 102.18 69.718 159.387 26.737 134.484-53.19 273.38-162.666 368.912-32.277 28.165-76.231 50.055-122.901 48.386-63.081-2.257-104.72-45.67-152.5-74.086-26.595-15.816-48.085-36.067-76.292-50.33-28.166-14.241-59.25-24.506-91.558-29.909-32.529-5.44-66.845-6.313-96.645-18.474-31.278-12.764-54.43-37.21-66.498-64.453-12.91-29.144-14.736-62.127-8.195-92.57 7.437-34.613 32.808-64.725 61.316-90.632 21.175-19.242 45.217-37.283 74.507-46.523 54.296-17.128 113.306-1.854 168.49 3.325 48.863 4.585 116.422-.956 152.675-32.469 16.606-14.434 25.795-34.617 24.864-54.607-1.858-39.856-36.936-71.707-55.625-107.367-27.47-52.413-9.146-94.395 14.407-144.515 19.951-42.458 34.122-86.798 42.215-131.895 3.536-19.704 8.46-41.47 8.091-61.27-.436-23.413-9.955-48.57-14.98-71.576-14.084-64.458-29.886-128.795-52.998-191.477-10.638-28.852-39.234-52.093-70.055-67.594-27.715-13.939-66.537-11.868-88.173-34.31-8.964-9.296-12.706-21.256-16.219-32.82-3.159-10.396-5.878-21.155-11.804-30.721-5.493-8.87-14.75-16.53-15.257-27.065-.702-14.569 17.524-25.802 34.988-26.42 17.465-.617 33.89 6.303 49.393 13.04 33.548 14.584 64.287 29.006 101.269 36.59 47.015 9.64 93.829 5.31 141.328-.622 26.27-3.282 52.317-8.37 77.442-15.605z" mask="url(#cmnz1c0nwam)"/>
                            </g>
                        </g>
                    </g>
                </g>
            </g>
        </g>
    </g>
</svg>
