<?xml version="1.0" encoding="UTF-8" standalone="no"?>
<!-- Generator: Adobe Illustrator 19.0.0, SVG Export Plug-In . SVG Version: 6.00 Build 0)  -->

<svg
   xmlns:dc="http://purl.org/dc/elements/1.1/"
   xmlns:cc="http://creativecommons.org/ns#"
   xmlns:rdf="http://www.w3.org/1999/02/22-rdf-syntax-ns#"
   xmlns:svg="http://www.w3.org/2000/svg"
   xmlns="http://www.w3.org/2000/svg"
   xmlns:sodipodi="http://sodipodi.sourceforge.net/DTD/sodipodi-0.dtd"
   xmlns:inkscape="http://www.inkscape.org/namespaces/inkscape"
   version="1.1"
   id="Capa_1"
   x="0px"
   y="0px"
   viewBox="0 0 469.333 469.333"
   style="enable-background:new 0 0 469.333 469.333;"
   xml:space="preserve"
   inkscape:version="0.91 r13725"
   sodipodi:docname="loop.svg"><metadata
     id="metadata4406"><rdf:RDF><cc:Work
         rdf:about=""><dc:format>image/svg+xml</dc:format><dc:type
           rdf:resource="http://purl.org/dc/dcmitype/StillImage" /></cc:Work></rdf:RDF></metadata><defs
     id="defs4404" /><sodipodi:namedview
     pagecolor="#ffffff"
     bordercolor="#666666"
     borderopacity="1"
     objecttolerance="10"
     gridtolerance="10"
     guidetolerance="10"
     inkscape:pageopacity="0"
     inkscape:pageshadow="2"
     inkscape:window-width="658"
     inkscape:window-height="372"
     id="namedview4402"
     showgrid="false"
     inkscape:zoom="0.50284126"
     inkscape:cx="234.6665"
     inkscape:cy="234.6665"
     inkscape:window-x="0"
     inkscape:window-y="0"
     inkscape:window-maximized="0"
     inkscape:current-layer="Capa_1" /><g
     id="g4362"
     style="fill:#0d102b;fill-opacity:1"><g
       id="g4364"
       style="fill:#0d102b;fill-opacity:1"><g
         id="g4366"
         style="fill:#0d102b;fill-opacity:1"><path
           d="M234.667,362.667c-70.72,0-128-57.28-128-128c0-21.653,5.44-41.92,14.827-59.84L90.347,143.68     C73.813,170.133,64,201.173,64,234.667c0,94.293,76.373,170.667,170.667,170.667v64L320,384l-85.333-85.333V362.667z"
           id="path4368"
           style="fill:#0d102b;fill-opacity:1" /><path
           d="M234.667,64V0l-85.333,85.333l85.333,85.333v-64c70.72,0,128,57.28,128,128c0,21.653-5.44,41.92-14.827,59.84     l31.147,31.147c16.533-26.453,26.347-57.493,26.347-90.987C405.333,140.373,328.96,64,234.667,64z"
           id="path4370"
           style="fill:#0d102b;fill-opacity:1" /></g></g></g><g
     id="g4372" /><g
     id="g4374" /><g
     id="g4376" /><g
     id="g4378" /><g
     id="g4380" /><g
     id="g4382" /><g
     id="g4384" /><g
     id="g4386" /><g
     id="g4388" /><g
     id="g4390" /><g
     id="g4392" /><g
     id="g4394" /><g
     id="g4396" /><g
     id="g4398" /><g
     id="g4400" /></svg>