<svg viewBox="0 0 320 281" fill="none" xmlns="http://www.w3.org/2000/svg">
<g clip-path="url(#clip0)">
<path d="M46.75 -142.573V422.935" stroke="#F2F2F7" stroke-width="1.2"/>
<path d="M126.75 -142.573V422.935" stroke="#F2F2F7" stroke-width="1.2"/>
<path d="M206.75 -142.573V422.935" stroke="#F2F2F7" stroke-width="1.2"/>
<path d="M286.75 -142.573V422.935" stroke="#F2F2F7" stroke-width="1.2"/>
<path d="M482.483 66.1777H-162" stroke="#F2F2F7" stroke-width="1.2"/>
<path d="M482.483 146.178H-162" stroke="#F2F2F7" stroke-width="1.2"/>
<path d="M482.483 226.178H-162" stroke="#F2F2F7" stroke-width="1.2"/>
<mask id="path-8-inside-1" fill="white">
<path fill-rule="evenodd" clip-rule="evenodd" d="M261.105 23.6455C261.105 17.7661 265.872 13 271.751 13H293.46C299.339 13 304.105 17.7661 304.105 23.6455V44.7801C304.105 50.6594 299.339 55.4256 293.46 55.4255L274.447 55.4255C268.568 55.4255 263.802 60.1917 263.802 66.071V101.347C263.802 107.227 259.036 111.993 253.156 111.993H233.857C227.978 111.993 223.212 116.759 223.212 122.638V140.945C223.212 146.824 218.446 151.59 212.566 151.59H190.857C184.978 151.59 180.212 146.824 180.212 140.945V122.071C180.212 116.192 175.446 111.425 169.566 111.425H153.645C147.766 111.425 143 116.192 143 122.071V198.355C143 204.234 138.234 209 132.355 209H110.645C104.766 209 100 204.234 100 198.355V119.645C100 113.766 104.766 109 110.645 109H131.383C137.262 109 142.028 104.234 142.028 98.3545V79.6454C142.028 73.766 146.795 68.9999 152.674 68.9999H174.383C180.262 68.9999 185.028 73.7661 185.028 79.6454V98.5194C185.028 104.399 189.795 109.165 195.674 109.165H210.156C216.036 109.165 220.802 104.399 220.802 98.5194V66.071C220.802 60.1916 225.568 55.4255 231.447 55.4255L250.46 55.4255C256.339 55.4256 261.105 50.6594 261.105 44.7801V23.6455ZM55.3422 79.6454C55.3422 73.7661 60.1083 68.9999 65.9877 68.9999H87.6967C93.576 68.9999 98.3422 73.7661 98.3422 79.6454V100.78C98.3422 106.659 93.576 111.426 87.6967 111.426H65.9877C60.1083 111.426 55.3422 106.659 55.3422 100.78V79.6454ZM61.9941 218.645C61.9941 212.766 57.228 208 51.3487 208H29.6396C23.7603 208 18.9941 212.766 18.9941 218.645V240.355C18.9941 246.234 23.7603 251 29.6396 251H51.3487C57.228 251 61.9941 246.234 61.9941 240.355V218.645Z"/>
</mask>
<path fill-rule="evenodd" clip-rule="evenodd" d="M261.105 23.6455C261.105 17.7661 265.872 13 271.751 13H293.46C299.339 13 304.105 17.7661 304.105 23.6455V44.7801C304.105 50.6594 299.339 55.4256 293.46 55.4255L274.447 55.4255C268.568 55.4255 263.802 60.1917 263.802 66.071V101.347C263.802 107.227 259.036 111.993 253.156 111.993H233.857C227.978 111.993 223.212 116.759 223.212 122.638V140.945C223.212 146.824 218.446 151.59 212.566 151.59H190.857C184.978 151.59 180.212 146.824 180.212 140.945V122.071C180.212 116.192 175.446 111.425 169.566 111.425H153.645C147.766 111.425 143 116.192 143 122.071V198.355C143 204.234 138.234 209 132.355 209H110.645C104.766 209 100 204.234 100 198.355V119.645C100 113.766 104.766 109 110.645 109H131.383C137.262 109 142.028 104.234 142.028 98.3545V79.6454C142.028 73.766 146.795 68.9999 152.674 68.9999H174.383C180.262 68.9999 185.028 73.7661 185.028 79.6454V98.5194C185.028 104.399 189.795 109.165 195.674 109.165H210.156C216.036 109.165 220.802 104.399 220.802 98.5194V66.071C220.802 60.1916 225.568 55.4255 231.447 55.4255L250.46 55.4255C256.339 55.4256 261.105 50.6594 261.105 44.7801V23.6455ZM55.3422 79.6454C55.3422 73.7661 60.1083 68.9999 65.9877 68.9999H87.6967C93.576 68.9999 98.3422 73.7661 98.3422 79.6454V100.78C98.3422 106.659 93.576 111.426 87.6967 111.426H65.9877C60.1083 111.426 55.3422 106.659 55.3422 100.78V79.6454ZM61.9941 218.645C61.9941 212.766 57.228 208 51.3487 208H29.6396C23.7603 208 18.9941 212.766 18.9941 218.645V240.355C18.9941 246.234 23.7603 251 29.6396 251H51.3487C57.228 251 61.9941 246.234 61.9941 240.355V218.645Z" fill="white"/>
<path d="M231.447 55.4255V57.0223V55.4255ZM274.447 55.4255V57.0223V55.4255ZM293.46 11.4032H271.751V14.5968H293.46V11.4032ZM305.702 44.7801V23.6455H302.509V44.7801H305.702ZM274.447 57.0223L293.46 57.0224V53.8287L274.447 53.8287V57.0223ZM265.399 101.347V66.071H262.205V101.347H265.399ZM233.857 113.59H253.156V110.396H233.857V113.59ZM221.615 122.638V140.945H224.809V122.638H221.615ZM212.566 149.994H190.857V153.187H212.566V149.994ZM181.809 140.945V122.071H178.615V140.945H181.809ZM169.566 109.829H153.645V113.022H169.566V109.829ZM141.403 122.071V198.355H144.597V122.071H141.403ZM132.355 207.403H110.645V210.597H132.355V207.403ZM101.597 198.355V119.645H98.4032V198.355H101.597ZM110.645 110.597H131.383V107.403H110.645V110.597ZM143.625 98.3545V79.6454H140.432V98.3545H143.625ZM152.674 70.5967H174.383V67.4031H152.674V70.5967ZM183.432 79.6454V98.5194H186.625V79.6454H183.432ZM195.674 110.762H210.156V107.568H195.674V110.762ZM219.205 66.071V98.5194H222.399V66.071H219.205ZM250.46 53.8287L231.447 53.8287L231.447 57.0223L250.46 57.0224V53.8287ZM259.509 23.6455V44.7801H262.702V23.6455H259.509ZM87.6967 67.4031H65.9877V70.5968H87.6967V67.4031ZM99.939 100.78V79.6454H96.7454V100.78H99.939ZM65.9877 113.022H87.6967V109.829H65.9877V113.022ZM53.7454 79.6454V100.78H56.939V79.6454H53.7454ZM29.6396 209.597H51.3487V206.403H29.6396V209.597ZM20.591 240.355V218.645H17.3973V240.355H20.591ZM51.3487 249.403H29.6396V252.597H51.3487V249.403ZM60.3973 218.645V240.355H63.591V218.645H60.3973ZM51.3487 252.597C58.1099 252.597 63.591 247.116 63.591 240.355H60.3973C60.3973 245.352 56.3461 249.403 51.3487 249.403V252.597ZM17.3973 240.355C17.3973 247.116 22.8784 252.597 29.6396 252.597V249.403C24.6422 249.403 20.591 245.352 20.591 240.355H17.3973ZM51.3487 209.597C56.3461 209.597 60.3973 213.648 60.3973 218.645H63.591C63.591 211.884 58.1099 206.403 51.3487 206.403V209.597ZM29.6396 206.403C22.8784 206.403 17.3973 211.884 17.3973 218.645H20.591C20.591 213.648 24.6422 209.597 29.6396 209.597V206.403ZM65.9877 109.829C60.9902 109.829 56.939 105.777 56.939 100.78H53.7454C53.7454 107.541 59.2264 113.022 65.9877 113.022V109.829ZM96.7454 100.78C96.7454 105.777 92.6941 109.829 87.6967 109.829V113.022C94.4579 113.022 99.939 107.541 99.939 100.78H96.7454ZM65.9877 67.4031C59.2264 67.4031 53.7454 72.8842 53.7454 79.6454H56.939C56.939 74.648 60.9902 70.5968 65.9877 70.5968V67.4031ZM87.6967 70.5968C92.6941 70.5968 96.7454 74.648 96.7454 79.6454H99.939C99.939 72.8842 94.4579 67.4031 87.6967 67.4031V70.5968ZM250.46 57.0224C257.221 57.0224 262.702 51.5413 262.702 44.7801H259.509C259.509 49.7775 255.457 53.8287 250.46 53.8287V57.0224ZM222.399 66.071C222.399 61.0735 226.45 57.0223 231.447 57.0223L231.447 53.8287C224.686 53.8287 219.205 59.3097 219.205 66.071H222.399ZM210.156 110.762C216.918 110.762 222.399 105.281 222.399 98.5194H219.205C219.205 103.517 215.154 107.568 210.156 107.568V110.762ZM183.432 98.5194C183.432 105.281 188.913 110.762 195.674 110.762V107.568C190.676 107.568 186.625 103.517 186.625 98.5194H183.432ZM174.383 70.5967C179.38 70.5967 183.432 74.648 183.432 79.6454H186.625C186.625 72.8842 181.144 67.4031 174.383 67.4031V70.5967ZM143.625 79.6454C143.625 74.6479 147.676 70.5967 152.674 70.5967V67.4031C145.913 67.4031 140.432 72.8841 140.432 79.6454H143.625ZM131.383 110.597C138.144 110.597 143.625 105.116 143.625 98.3545H140.432C140.432 103.352 136.38 107.403 131.383 107.403V110.597ZM101.597 119.645C101.597 114.648 105.648 110.597 110.645 110.597V107.403C103.884 107.403 98.4032 112.884 98.4032 119.645H101.597ZM110.645 207.403C105.648 207.403 101.597 203.352 101.597 198.355H98.4032C98.4032 205.116 103.884 210.597 110.645 210.597V207.403ZM141.403 198.355C141.403 203.352 137.352 207.403 132.355 207.403V210.597C139.116 210.597 144.597 205.116 144.597 198.355H141.403ZM153.645 109.829C146.884 109.829 141.403 115.31 141.403 122.071H144.597C144.597 117.074 148.648 113.022 153.645 113.022V109.829ZM181.809 122.071C181.809 115.31 176.327 109.829 169.566 109.829V113.022C174.564 113.022 178.615 117.074 178.615 122.071H181.809ZM190.857 149.994C185.86 149.994 181.809 145.942 181.809 140.945H178.615C178.615 147.706 184.096 153.187 190.857 153.187V149.994ZM221.615 140.945C221.615 145.942 217.564 149.994 212.566 149.994V153.187C219.327 153.187 224.809 147.706 224.809 140.945H221.615ZM233.857 110.396C227.096 110.396 221.615 115.877 221.615 122.638H224.809C224.809 117.641 228.86 113.59 233.857 113.59V110.396ZM262.205 101.347C262.205 106.345 258.154 110.396 253.156 110.396V113.59C259.918 113.59 265.399 108.109 265.399 101.347H262.205ZM274.447 53.8287C267.686 53.8287 262.205 59.3097 262.205 66.071H265.399C265.399 61.0736 269.45 57.0223 274.447 57.0223V53.8287ZM302.509 44.7801C302.509 49.7775 298.457 53.8287 293.46 53.8287V57.0224C300.221 57.0224 305.702 51.5413 305.702 44.7801H302.509ZM271.751 11.4032C264.99 11.4032 259.509 16.8842 259.509 23.6455H262.702C262.702 18.648 266.753 14.5968 271.751 14.5968V11.4032ZM293.46 14.5968C298.457 14.5968 302.509 18.648 302.509 23.6455H305.702C305.702 16.8842 300.221 11.4032 293.46 11.4032V14.5968Z" fill="#F04405" mask="url(#path-8-inside-1)"/>
</g>
<defs>
<clipPath id="clip0">
<rect width="320" height="280.363" fill="white"/>
</clipPath>
</defs>
</svg>
