<svg viewBox="0 0 662 580" fill="none" xmlns="http://www.w3.org/2000/svg">
<path d="M50 0V580" stroke="#F2F2F7" stroke-width="1.2"/>
<path d="M130 0V580" stroke="#F2F2F7" stroke-width="1.2"/>
<path d="M210 0V580" stroke="#F2F2F7" stroke-width="1.2"/>
<path d="M290 0V580" stroke="#F2F2F7" stroke-width="1.2"/>
<path d="M370 0V580" stroke="#F2F2F7" stroke-width="1.2"/>
<path d="M450 0V580" stroke="#F2F2F7" stroke-width="1.2"/>
<path d="M530 0V580" stroke="#F2F2F7" stroke-width="1.2"/>
<path d="M610 0V580" stroke="#F2F2F7" stroke-width="1.2"/>
<path d="M661 50H0" stroke="#F2F2F7" stroke-width="1.2"/>
<path d="M661 130H0" stroke="#F2F2F7" stroke-width="1.2"/>
<path d="M661 210H0" stroke="#F2F2F7" stroke-width="1.2"/>
<path d="M661 290H0" stroke="#F2F2F7" stroke-width="1.2"/>
<path d="M661 370H0" stroke="#F2F2F7" stroke-width="1.2"/>
<path d="M661 450H0" stroke="#F2F2F7" stroke-width="1.2"/>
<path d="M661 530H0" stroke="#F2F2F7" stroke-width="1.2"/>
<rect width="262" height="580" fill="url(#paint0_linear)"/>
<path fill-rule="evenodd" clip-rule="evenodd" d="M630 17C630 10.3726 624.627 5 618 5H594.176C587.549 5 582.176 10.3726 582.176 17V40.8238C582.176 47.4512 576.804 52.8238 570.176 52.8238H548.744C542.116 52.8238 536.744 58.1963 536.744 64.8238V101.401C536.744 108.028 531.371 113.401 524.744 113.401L505.702 113.401C499.075 113.401 493.702 108.028 493.702 101.401V77.5768C493.702 70.9494 488.33 65.5768 481.702 65.5768H457.879C451.251 65.5768 445.879 70.9494 445.879 77.5768V101.401C445.879 108.028 440.506 113.401 433.879 113.401L410.852 113.401C404.224 113.401 398.852 118.773 398.852 125.401V259.219C398.852 265.846 393.479 271.219 386.852 271.219L367.013 271.219C360.386 271.219 355.013 265.846 355.013 259.219V211.483C355.013 204.856 349.641 199.483 343.013 199.483H319.19C312.562 199.483 307.19 204.856 307.19 211.483V256.031C307.19 262.658 301.817 268.031 295.19 268.031H273.757C267.13 268.031 261.757 273.403 261.757 280.031V332.549C261.757 339.176 256.384 344.549 249.757 344.549L227.527 344.549C220.9 344.549 215.527 339.176 215.527 332.549V213.875C215.527 207.247 210.155 201.875 203.527 201.875H179.704C173.076 201.875 167.704 207.247 167.704 213.874V332.549C167.704 339.176 162.331 344.549 155.704 344.549H132.677C126.049 344.549 120.677 349.921 120.677 356.549V403.487C120.677 410.115 115.304 415.487 108.677 415.487H80.8238H45C38.3726 415.487 33 420.86 33 427.487V451.311C33 457.938 38.3726 463.311 45 463.311H68.8238C75.4512 463.311 80.8238 468.684 80.8238 475.311V562.103C80.8238 568.73 86.1964 574.103 92.8238 574.103H116.648C123.275 574.103 128.648 568.73 128.648 562.103V428.284C128.648 421.657 134.02 416.284 140.648 416.284H156.501C163.128 416.284 168.501 410.912 168.501 404.284V358.94C168.501 352.313 173.873 346.94 180.501 346.94H202.73C209.358 346.94 214.73 352.313 214.73 358.94V404.284C214.73 410.912 220.103 416.284 226.73 416.284H250.554C257.181 416.284 262.554 410.912 262.554 404.284V356.549C262.554 349.921 267.927 344.549 274.554 344.549L297.581 344.549C304.208 344.549 309.581 339.176 309.581 332.549V283.219C309.581 276.592 314.953 271.219 321.581 271.219L339.825 271.219C346.453 271.219 351.825 276.592 351.825 283.219V417.037C351.825 423.665 346.453 429.037 339.825 429.037H316.798C310.171 429.037 304.798 434.41 304.798 441.037V464.861C304.798 471.489 310.171 476.861 316.798 476.861H340.622C347.25 476.861 352.622 471.489 352.622 464.861V442.631C352.622 436.004 357.995 430.631 364.622 430.631H387.649C394.276 430.631 399.649 425.259 399.649 418.631V284.813C399.649 278.186 405.021 272.813 411.649 272.813H434.676C441.303 272.813 446.676 267.44 446.676 260.813V125.401C446.676 118.773 452.048 113.401 458.676 113.401H476.92C483.547 113.401 488.92 118.773 488.92 125.401V149.224C488.92 155.852 494.292 161.224 500.92 161.224H524.744C531.371 161.224 536.744 155.852 536.744 149.224V128.589C536.744 121.961 542.116 116.589 548.744 116.589H572.567C579.195 116.589 584.567 111.216 584.567 104.589V64.8238C584.567 58.1963 589.94 52.8238 596.567 52.8238H618C624.627 52.8238 630 47.4512 630 40.8238V17ZM350.231 77.5768C350.231 70.9494 355.604 65.5768 362.231 65.5768H386.055C392.682 65.5768 398.055 70.9494 398.055 77.5768V101.401C398.055 108.028 392.682 113.401 386.055 113.401H362.231C355.604 113.401 350.231 108.028 350.231 101.401V77.5768Z" fill="white"/>
<path d="M339.825 271.219V272.219V271.219ZM321.581 271.219V270.219V271.219ZM297.581 344.549V343.549V344.549ZM274.554 344.549V345.549V344.549ZM227.527 344.549L227.527 343.549L227.527 344.549ZM249.757 344.549V343.549V344.549ZM367.013 271.219V270.219V271.219ZM386.852 271.219L386.852 270.219L386.852 271.219ZM410.852 113.401V114.401V113.401ZM433.879 113.401V112.401V113.401ZM524.744 113.401V114.401V113.401ZM594.176 6H618V4H594.176V6ZM583.176 40.8238V17H581.176V40.8238H583.176ZM548.744 53.8238H570.176V51.8238H548.744V53.8238ZM537.744 101.401V64.8238H535.744V101.401H537.744ZM505.702 114.401L524.744 114.401V112.401L505.702 112.401V114.401ZM492.702 77.5768V101.401H494.702V77.5768H492.702ZM457.879 66.5768H481.702V64.5768H457.879V66.5768ZM446.879 101.401V77.5768H444.879V101.401H446.879ZM410.852 114.401L433.879 114.401V112.401L410.852 112.401V114.401ZM399.852 259.219V125.401H397.852V259.219H399.852ZM367.013 272.219L386.852 272.219L386.852 270.219L367.013 270.219V272.219ZM354.013 211.483V259.219H356.013V211.483H354.013ZM319.19 200.483H343.013V198.483H319.19V200.483ZM308.19 256.031V211.483H306.19V256.031H308.19ZM273.757 269.031H295.19V267.031H273.757V269.031ZM262.757 332.549V280.031H260.757V332.549H262.757ZM227.527 345.549L249.757 345.549V343.549L227.527 343.549L227.527 345.549ZM214.527 213.875V332.549H216.527V213.875H214.527ZM179.704 202.875H203.527V200.875H179.704V202.875ZM168.704 332.549V213.874H166.704V332.549H168.704ZM132.677 345.549H155.704V343.549H132.677V345.549ZM121.677 403.487V356.549H119.677V403.487H121.677ZM80.8238 416.487H108.677V414.487H80.8238V416.487ZM45 416.487H80.8238V414.487H45V416.487ZM34 451.311V427.487H32V451.311H34ZM68.8238 462.311H45V464.311H68.8238V462.311ZM81.8238 562.103V475.311H79.8238V562.103H81.8238ZM116.648 573.103H92.8238V575.103H116.648V573.103ZM127.648 428.284V562.103H129.648V428.284H127.648ZM156.501 415.284H140.648V417.284H156.501V415.284ZM167.501 358.94V404.284H169.501V358.94H167.501ZM202.73 345.94H180.501V347.94H202.73V345.94ZM215.73 404.284V358.94H213.73V404.284H215.73ZM250.554 415.284H226.73V417.284H250.554V415.284ZM261.554 356.549V404.284H263.554V356.549H261.554ZM297.581 343.549L274.554 343.549V345.549L297.581 345.549V343.549ZM308.581 283.219V332.549H310.581V283.219H308.581ZM339.825 270.219L321.581 270.219V272.219L339.825 272.219V270.219ZM352.825 417.037V283.219H350.825V417.037H352.825ZM316.798 430.037H339.825V428.037H316.798V430.037ZM305.798 464.861V441.037H303.798V464.861H305.798ZM340.622 475.861H316.798V477.861H340.622V475.861ZM351.622 442.631V464.861H353.622V442.631H351.622ZM387.649 429.631H364.622V431.631H387.649V429.631ZM398.649 284.813V418.631H400.649V284.813H398.649ZM434.676 271.813H411.649V273.813H434.676V271.813ZM445.676 125.401V260.813H447.676V125.401H445.676ZM476.92 112.401H458.676V114.401H476.92V112.401ZM489.92 149.224V125.401H487.92V149.224H489.92ZM524.744 160.224H500.92V162.224H524.744V160.224ZM535.744 128.589V149.224H537.744V128.589H535.744ZM572.567 115.589H548.744V117.589H572.567V115.589ZM583.567 64.8238V104.589H585.567V64.8238H583.567ZM618 51.8238H596.567V53.8238H618V51.8238ZM629 17V40.8238H631V17H629ZM386.055 64.5768H362.231V66.5768H386.055V64.5768ZM399.055 101.401V77.5768H397.055V101.401H399.055ZM362.231 114.401H386.055V112.401H362.231V114.401ZM349.231 77.5768V101.401H351.231V77.5768H349.231ZM362.231 112.401C356.156 112.401 351.231 107.476 351.231 101.401H349.231C349.231 108.58 355.051 114.401 362.231 114.401V112.401ZM397.055 101.401C397.055 107.476 392.13 112.401 386.055 112.401V114.401C393.234 114.401 399.055 108.58 399.055 101.401H397.055ZM362.231 64.5768C355.051 64.5768 349.231 70.3971 349.231 77.5768H351.231C351.231 71.5016 356.156 66.5768 362.231 66.5768V64.5768ZM386.055 66.5768C392.13 66.5768 397.055 71.5016 397.055 77.5768H399.055C399.055 70.3971 393.234 64.5768 386.055 64.5768V66.5768ZM618 53.8238C625.18 53.8238 631 48.0035 631 40.8238H629C629 46.8989 624.075 51.8238 618 51.8238V53.8238ZM585.567 64.8238C585.567 58.7486 590.492 53.8238 596.567 53.8238V51.8238C589.388 51.8238 583.567 57.6441 583.567 64.8238H585.567ZM572.567 117.589C579.747 117.589 585.567 111.768 585.567 104.589H583.567C583.567 110.664 578.643 115.589 572.567 115.589V117.589ZM537.744 128.589C537.744 122.514 542.669 117.589 548.744 117.589V115.589C541.564 115.589 535.744 121.409 535.744 128.589H537.744ZM524.744 162.224C531.923 162.224 537.744 156.404 537.744 149.224H535.744C535.744 155.299 530.819 160.224 524.744 160.224V162.224ZM487.92 149.224C487.92 156.404 493.74 162.224 500.92 162.224V160.224C494.845 160.224 489.92 155.299 489.92 149.224H487.92ZM476.92 114.401C482.995 114.401 487.92 119.325 487.92 125.401H489.92C489.92 118.221 484.1 112.401 476.92 112.401V114.401ZM434.676 273.813C441.855 273.813 447.676 267.993 447.676 260.813H445.676C445.676 266.888 440.751 271.813 434.676 271.813V273.813ZM400.649 284.813C400.649 278.738 405.574 273.813 411.649 273.813V271.813C404.469 271.813 398.649 277.633 398.649 284.813H400.649ZM387.649 431.631C394.829 431.631 400.649 425.811 400.649 418.631H398.649C398.649 424.707 393.724 429.631 387.649 429.631V431.631ZM353.622 442.631C353.622 436.556 358.547 431.631 364.622 431.631V429.631C357.442 429.631 351.622 435.452 351.622 442.631H353.622ZM340.622 477.861C347.802 477.861 353.622 472.041 353.622 464.861H351.622C351.622 470.936 346.697 475.861 340.622 475.861V477.861ZM303.798 464.861C303.798 472.041 309.619 477.861 316.798 477.861V475.861C310.723 475.861 305.798 470.936 305.798 464.861H303.798ZM316.798 428.037C309.619 428.037 303.798 433.858 303.798 441.037H305.798C305.798 434.962 310.723 430.037 316.798 430.037V428.037ZM350.825 417.037C350.825 423.113 345.9 428.037 339.825 428.037V430.037C347.005 430.037 352.825 424.217 352.825 417.037H350.825ZM339.825 272.219C345.9 272.219 350.825 277.144 350.825 283.219H352.825C352.825 276.039 347.005 270.219 339.825 270.219V272.219ZM310.581 283.219C310.581 277.144 315.506 272.219 321.581 272.219V270.219C314.401 270.219 308.581 276.039 308.581 283.219H310.581ZM297.581 345.549C304.76 345.549 310.581 339.728 310.581 332.549H308.581C308.581 338.624 303.656 343.549 297.581 343.549V345.549ZM263.554 356.549C263.554 350.474 268.479 345.549 274.554 345.549V343.549C267.374 343.549 261.554 349.369 261.554 356.549H263.554ZM250.554 417.284C257.734 417.284 263.554 411.464 263.554 404.284H261.554C261.554 410.36 256.629 415.284 250.554 415.284V417.284ZM213.73 404.284C213.73 411.464 219.551 417.284 226.73 417.284V415.284C220.655 415.284 215.73 410.36 215.73 404.284H213.73ZM202.73 347.94C208.805 347.94 213.73 352.865 213.73 358.94H215.73C215.73 351.76 209.91 345.94 202.73 345.94V347.94ZM169.501 358.94C169.501 352.865 174.426 347.94 180.501 347.94V345.94C173.321 345.94 167.501 351.76 167.501 358.94H169.501ZM156.501 417.284C163.68 417.284 169.501 411.464 169.501 404.284H167.501C167.501 410.36 162.576 415.284 156.501 415.284V417.284ZM129.648 428.284C129.648 422.209 134.572 417.284 140.648 417.284V415.284C133.468 415.284 127.648 421.105 127.648 428.284H129.648ZM116.648 575.103C123.827 575.103 129.648 569.282 129.648 562.103H127.648C127.648 568.178 122.723 573.103 116.648 573.103V575.103ZM79.8238 562.103C79.8238 569.282 85.6441 575.103 92.8238 575.103V573.103C86.7486 573.103 81.8238 568.178 81.8238 562.103H79.8238ZM68.8238 464.311C74.8989 464.311 79.8238 469.236 79.8238 475.311H81.8238C81.8238 468.131 76.0035 462.311 68.8238 462.311V464.311ZM32 451.311C32 458.491 37.8203 464.311 45 464.311V462.311C38.9249 462.311 34 457.386 34 451.311H32ZM45 414.487C37.8203 414.487 32 420.308 32 427.487H34C34 421.412 38.9249 416.487 45 416.487V414.487ZM119.677 403.487C119.677 409.562 114.752 414.487 108.677 414.487V416.487C115.857 416.487 121.677 410.667 121.677 403.487H119.677ZM132.677 343.549C125.497 343.549 119.677 349.369 119.677 356.549H121.677C121.677 350.474 126.602 345.549 132.677 345.549V343.549ZM166.704 332.549C166.704 338.624 161.779 343.549 155.704 343.549V345.549C162.883 345.549 168.704 339.728 168.704 332.549H166.704ZM179.704 200.875C172.524 200.875 166.704 206.695 166.704 213.874H168.704C168.704 207.799 173.628 202.875 179.704 202.875V200.875ZM216.527 213.875C216.527 206.695 210.707 200.875 203.527 200.875V202.875C209.602 202.875 214.527 207.799 214.527 213.875H216.527ZM227.527 343.549C221.452 343.549 216.527 338.624 216.527 332.549H214.527C214.527 339.728 220.348 345.549 227.527 345.549L227.527 343.549ZM260.757 332.549C260.757 338.624 255.832 343.549 249.757 343.549V345.549C256.937 345.549 262.757 339.728 262.757 332.549H260.757ZM273.757 267.031C266.577 267.031 260.757 272.851 260.757 280.031H262.757C262.757 273.956 267.682 269.031 273.757 269.031V267.031ZM306.19 256.031C306.19 262.106 301.265 267.031 295.19 267.031V269.031C302.369 269.031 308.19 263.21 308.19 256.031H306.19ZM319.19 198.483C312.01 198.483 306.19 204.304 306.19 211.483H308.19C308.19 205.408 313.114 200.483 319.19 200.483V198.483ZM356.013 211.483C356.013 204.304 350.193 198.483 343.013 198.483V200.483C349.088 200.483 354.013 205.408 354.013 211.483H356.013ZM367.013 270.219C360.938 270.219 356.013 265.294 356.013 259.219H354.013C354.013 266.399 359.834 272.219 367.013 272.219V270.219ZM397.852 259.219C397.852 265.294 392.927 270.219 386.852 270.219L386.852 272.219C394.032 272.219 399.852 266.399 399.852 259.219H397.852ZM410.852 112.401C403.672 112.401 397.852 118.221 397.852 125.401H399.852C399.852 119.325 404.777 114.401 410.852 114.401V112.401ZM444.879 101.401C444.879 107.476 439.954 112.401 433.879 112.401V114.401C441.058 114.401 446.879 108.58 446.879 101.401H444.879ZM457.879 64.5768C450.699 64.5768 444.879 70.3971 444.879 77.5768H446.879C446.879 71.5016 451.803 66.5768 457.879 66.5768V64.5768ZM494.702 77.5768C494.702 70.3971 488.882 64.5768 481.702 64.5768V66.5768C487.777 66.5768 492.702 71.5016 492.702 77.5768H494.702ZM505.702 112.401C499.627 112.401 494.702 107.476 494.702 101.401H492.702C492.702 108.58 498.523 114.401 505.702 114.401V112.401ZM535.744 101.401C535.744 107.476 530.819 112.401 524.744 112.401V114.401C531.923 114.401 537.744 108.58 537.744 101.401H535.744ZM548.744 51.8238C541.564 51.8238 535.744 57.6441 535.744 64.8238H537.744C537.744 58.7486 542.669 53.8238 548.744 53.8238V51.8238ZM581.176 40.8238C581.176 46.8989 576.251 51.8238 570.176 51.8238V53.8238C577.356 53.8238 583.176 48.0035 583.176 40.8238H581.176ZM618 6C624.075 6 629 10.9249 629 17H631C631 9.8203 625.18 4 618 4V6ZM447.676 125.401C447.676 119.325 452.6 114.401 458.676 114.401V112.401C451.496 112.401 445.676 118.221 445.676 125.401H447.676ZM594.176 4C586.997 4 581.176 9.82031 581.176 17H583.176C583.176 10.9249 588.101 6 594.176 6V4Z" fill="#F04405"/>
<defs>
<linearGradient id="paint0_linear" x1="0" y1="290" x2="228.388" y2="290" gradientUnits="userSpaceOnUse">
<stop stop-color="white"/>
<stop offset="1" stop-color="white" stop-opacity="0"/>
</linearGradient>
</defs>
</svg>
