<?xml version="1.0" encoding="UTF-8" standalone="no"?>
<svg
   xmlns:dc="http://purl.org/dc/elements/1.1/"
   xmlns:cc="http://creativecommons.org/ns#"
   xmlns:rdf="http://www.w3.org/1999/02/22-rdf-syntax-ns#"
   xmlns:svg="http://www.w3.org/2000/svg"
   xmlns="http://www.w3.org/2000/svg"
   xmlns:sodipodi="http://sodipodi.sourceforge.net/DTD/sodipodi-0.dtd"
   xmlns:inkscape="http://www.inkscape.org/namespaces/inkscape"
   height="480pt"
   viewBox="0 0 480 480"
   width="480pt"
   id="svg5577"
   version="1.1"
   inkscape:version="0.91 r13725"
   sodipodi:docname="business-and-finance.svg">
  <metadata
     id="metadata5591">
    <rdf:RDF>
      <cc:Work
         rdf:about="">
        <dc:format>image/svg+xml</dc:format>
        <dc:type
           rdf:resource="http://purl.org/dc/dcmitype/StillImage" />
      </cc:Work>
    </rdf:RDF>
  </metadata>
  <defs
     id="defs5589" />
  <sodipodi:namedview
     pagecolor="#ffffff"
     bordercolor="#666666"
     borderopacity="1"
     objecttolerance="10"
     gridtolerance="10"
     guidetolerance="10"
     inkscape:pageopacity="0"
     inkscape:pageshadow="2"
     inkscape:window-width="1920"
     inkscape:window-height="1017"
     id="namedview5587"
     showgrid="false"
     inkscape:zoom="0.39333333"
     inkscape:cx="233.21593"
     inkscape:cy="305.76519"
     inkscape:window-x="-8"
     inkscape:window-y="-8"
     inkscape:window-maximized="1"
     inkscape:current-layer="svg5577" />
  <path
     d="m72 320c-35.785156 0-72 10.992188-72 32v96c0 21.007812 36.214844 32 72 32s72-10.992188 72-32v-96c0-21.007812-36.214844-32-72-32zm0 16c36.375 0 56 11.359375 56 16s-19.625 16-56 16-56-11.359375-56-16 19.625-16 56-16zm0 128c-36.375 0-56-11.359375-56-16v-11.199219c17.574219 7.941407 36.726562 11.769531 56 11.199219 19.273438.570312 38.425781-3.257812 56-11.199219v11.199219c0 4.640625-19.625 16-56 16zm0-32c-36.375 0-56-11.359375-56-16v-11.199219c17.574219 7.941407 36.726562 11.769531 56 11.199219 19.273438.570312 38.425781-3.257812 56-11.199219v11.199219c0 4.640625-19.625 16-56 16zm0-32c-36.375 0-56-11.359375-56-16v-11.199219c17.574219 7.941407 36.726562 11.769531 56 11.199219 19.273438.570312 38.425781-3.257812 56-11.199219v11.199219c0 4.640625-19.625 16-56 16zm0 0"
     id="path5579"
     style="fill:#0d102b;fill-opacity:1" />
  <path
     d="m240 256c-35.785156 0-72 10.992188-72 32v160c0 21.007812 36.214844 32 72 32s72-10.992188 72-32v-160c0-21.007812-36.214844-32-72-32zm0 16c36.375 0 56 11.359375 56 16s-19.625 16-56 16-56-11.359375-56-16 19.625-16 56-16zm0 192c-36.375 0-56-11.359375-56-16v-11.199219c17.574219 7.941407 36.726562 11.769531 56 11.199219 19.273438.570312 38.425781-3.257812 56-11.199219v11.199219c0 4.640625-19.625 16-56 16zm0-32c-36.375 0-56-11.359375-56-16v-11.199219c17.574219 7.941407 36.726562 11.769531 56 11.199219 19.273438.570312 38.425781-3.257812 56-11.199219v11.199219c0 4.640625-19.625 16-56 16zm0-32c-36.375 0-56-11.359375-56-16v-11.199219c17.574219 7.941407 36.726562 11.769531 56 11.199219 19.273438.570312 38.425781-3.257812 56-11.199219v11.199219c0 4.640625-19.625 16-56 16zm0-32c-36.375 0-56-11.359375-56-16v-11.199219c17.574219 7.941407 36.726562 11.769531 56 11.199219 19.273438.570312 38.425781-3.257812 56-11.199219v11.199219c0 4.640625-19.625 16-56 16zm0-32c-36.375 0-56-11.359375-56-16v-11.199219c17.574219 7.941407 36.726562 11.769531 56 11.199219 19.273438.570312 38.425781-3.257812 56-11.199219v11.199219c0 4.640625-19.625 16-56 16zm0 0"
     id="path5581"
     style="fill:#0d102b;fill-opacity:1" />
  <path
     d="m408 160c-35.785156 0-72 10.992188-72 32v256c0 21.007812 36.214844 32 72 32s72-10.992188 72-32v-256c0-21.007812-36.214844-32-72-32zm0 16c36.375 0 56 11.359375 56 16s-19.625 16-56 16-56-11.359375-56-16 19.625-16 56-16zm0 288c-36.375 0-56-11.359375-56-16v-11.199219c17.574219 7.941407 36.726562 11.769531 56 11.199219 19.273438.570312 38.425781-3.257812 56-11.199219v11.199219c0 4.640625-19.625 16-56 16zm0-32c-36.375 0-56-11.359375-56-16v-11.199219c17.574219 7.941407 36.726562 11.769531 56 11.199219 19.273438.570312 38.425781-3.257812 56-11.199219v11.199219c0 4.640625-19.625 16-56 16zm0-32c-36.375 0-56-11.359375-56-16v-11.199219c17.574219 7.941407 36.726562 11.769531 56 11.199219 19.273438.570312 38.425781-3.257812 56-11.199219v11.199219c0 4.640625-19.625 16-56 16zm0-32c-36.375 0-56-11.359375-56-16v-11.199219c17.574219 7.941407 36.726562 11.769531 56 11.199219 19.273438.570312 38.425781-3.257812 56-11.199219v11.199219c0 4.640625-19.625 16-56 16zm0-32c-36.375 0-56-11.359375-56-16v-11.199219c17.574219 7.941407 36.726562 11.769531 56 11.199219 19.273438.570312 38.425781-3.257812 56-11.199219v11.199219c0 4.640625-19.625 16-56 16zm0-32c-36.375 0-56-11.359375-56-16v-11.199219c17.574219 7.941407 36.726562 11.769531 56 11.199219 19.273438.570312 38.425781-3.257812 56-11.199219v11.199219c0 4.640625-19.625 16-56 16zm0-32c-36.375 0-56-11.359375-56-16v-11.199219c17.574219 7.941407 36.726562 11.769531 56 11.199219 19.273438.570312 38.425781-3.257812 56-11.199219v11.199219c0 4.640625-19.625 16-56 16zm0-32c-36.375 0-56-11.359375-56-16v-11.199219c17.574219 7.941407 36.726562 11.769531 56 11.199219 19.273438.570312 38.425781-3.257812 56-11.199219v11.199219c0 4.640625-19.625 16-56 16zm0 0"
     id="path5583"
     style="fill:#0d102b;fill-opacity:1" />
  <path
     d="m392 0v16h60.6875l-152 152h-167.695312l-130.265626 113.976562 10.546876 12.046876 125.734374-110.023438h168.304688l156.6875-156.6875v60.6875h16v-88zm0 0"
     id="path5585"
     style="fill:#0d102b;fill-opacity:1" />
</svg>
